<?xml version="1.0" encoding="UTF-8" standalone="no"?>
<!-- Created with Inkscape (http://www.inkscape.org/) -->

<svg
   xmlns:dc="http://purl.org/dc/elements/1.1/"
   xmlns:cc="http://creativecommons.org/ns#"
   xmlns:rdf="http://www.w3.org/1999/02/22-rdf-syntax-ns#"
   xmlns:svg="http://www.w3.org/2000/svg"
   xmlns="http://www.w3.org/2000/svg"
   xmlns:sodipodi="http://sodipodi.sourceforge.net/DTD/sodipodi-0.dtd"
   xmlns:inkscape="http://www.inkscape.org/namespaces/inkscape"
   version="1.1"
   id="svg44997"
   xml:space="preserve"
   width="800"
   height="800"
   viewBox="0 0 800 800"
   sodipodi:docname="flower-image-publicdomainvectors.org.svg"
   inkscape:version="0.92.4 (5da689c313, 2019-01-14)"><metadata
     id="metadata45003"><rdf:RDF><cc:Work
         rdf:about=""><dc:format>image/svg+xml</dc:format><dc:type
           rdf:resource="http://purl.org/dc/dcmitype/StillImage" /><dc:title></dc:title></cc:Work></rdf:RDF></metadata><defs
     id="defs45001"><clipPath
       clipPathUnits="userSpaceOnUse"
       id="clipPath45013"><path
         d="M 0,600 H 600 V 0 H 0 Z"
         id="path45011"
         inkscape:connector-curvature="0" /></clipPath></defs><sodipodi:namedview
     pagecolor="#ffffff"
     bordercolor="#666666"
     borderopacity="1"
     objecttolerance="10"
     gridtolerance="10"
     guidetolerance="10"
     inkscape:pageopacity="0"
     inkscape:pageshadow="2"
     inkscape:window-width="797"
     inkscape:window-height="480"
     id="namedview44999"
     showgrid="false"
     inkscape:zoom="0.295"
     inkscape:cx="400"
     inkscape:cy="400"
     inkscape:window-x="0"
     inkscape:window-y="0"
     inkscape:window-maximized="0"
     inkscape:current-layer="g45005" /><g
     id="g45005"
     inkscape:groupmode="layer"
     inkscape:label="flower-image-publicdomainvectors.org"
     transform="matrix(1.3333333,0,0,-1.3333333,0,800)"><g
       id="g45007"><g
         id="g45009"
         clip-path="url(#clipPath45013)"><path
           d="m 328.956,129.831 c 69.334,0 125.883,60.614 125.883,134.932 0,74.318 -56.549,134.932 -125.883,134.932 -69.333,0 -125.882,-60.614 -125.882,-134.932 0,-74.318 56.549,-134.932 125.882,-134.932"
           style="fill:#e6e6e6;fill-opacity:1;fill-rule:evenodd;stroke:none"
           id="path45015"
           inkscape:connector-curvature="0" /><path
           d="m 295.501,337.265 c -44.694,-47.239 -152.809,-34.645 -183.528,77.392 86.105,6.837 159.21,7.625 183.528,-77.392"
           style="fill:#627d1d;fill-opacity:1;fill-rule:evenodd;stroke:none"
           id="path45017"
           inkscape:connector-curvature="0" /><path
           d="m 295.501,337.265 c -2.338,-2.472 -4.858,-4.768 -7.523,-6.907 -33.695,13.506 -58.528,43.937 -65.06,81.162 34.046,-9.005 59.926,-30.003 72.583,-74.255"
           style="fill:#536b15;fill-opacity:1;fill-rule:evenodd;stroke:none"
           id="path45019"
           inkscape:connector-curvature="0" /><path
           d="m 288.863,338.846 c -37.821,-39.975 -129.311,-29.319 -155.305,65.49 72.863,5.786 134.727,6.453 155.305,-65.49"
           style="fill:#9cbd48;fill-opacity:1;fill-rule:evenodd;stroke:none"
           id="path45021"
           inkscape:connector-curvature="0" /><path
           d="m 288.863,338.846 c -2.04,-2.158 -4.245,-4.158 -6.58,-6.016 -28.048,13.237 -49.146,38.543 -57.335,69.483 30.041,-7.249 52.899,-24.948 63.915,-63.467"
           style="fill:#8bab3a;fill-opacity:1;fill-rule:evenodd;stroke:none"
           id="path45023"
           inkscape:connector-curvature="0" /><path
           d="m 284.15,339.755 c -33.658,-35.575 -115.078,-26.091 -138.212,58.283 64.844,5.149 119.899,5.743 138.212,-58.283"
           style="fill:#aad149;fill-opacity:1;fill-rule:evenodd;stroke:none"
           id="path45025"
           inkscape:connector-curvature="0" /><path
           d="m 284.15,339.755 c -1.723,-1.823 -3.578,-3.52 -5.538,-5.101 -24.441,12.734 -43.161,34.823 -51.926,61.721 27.022,-6.362 47.586,-22.091 57.464,-56.62"
           style="fill:#a1c740;fill-opacity:1;fill-rule:evenodd;stroke:none"
           id="path45027"
           inkscape:connector-curvature="0" /><path
           d="m 290.409,341.164 c -6.324,0.872 -12.51,1.92 -18.566,3.131 -7.203,17.023 -23.842,26.631 -39.263,37.196 11.579,-10.227 23.557,-20.138 29.258,-35.021 -8.774,2.061 -17.276,4.467 -25.538,7.178 -3.714,11.682 -12.374,20.853 -23.375,28.838 7.513,-7.806 15.138,-15.586 13.792,-25.518 -7.476,2.726 -14.759,5.7 -21.868,8.891 4.443,11.223 -2.834,18.207 -9.305,25.482 7.956,-12.982 8.43,-19.344 4.001,-23.047 -13.556,6.276 -24.82,12.552 -37.32,20.17 10.902,-8.585 22.347,-16.448 34.481,-23.397 -2,-7.199 -7.682,-8.055 -14.109,-7.626 8.106,-2.344 15.449,-1.565 21.765,3.414 6.377,-3.366 12.941,-6.48 19.713,-9.314 -5.159,-7.546 -12.752,-11.416 -23.392,-10.671 12.388,-2.473 21.954,1.644 30.658,7.768 6.982,-2.658 14.183,-5.023 21.625,-7.069 -6.872,-4.962 -13.746,-9.923 -20.618,-14.884 10.147,2.312 20.84,3.738 26.466,13.355 10.147,-2.518 20.732,-4.45 31.808,-5.73 0.763,1.498 1.527,2.995 2.29,4.493 -0.833,0.787 -1.669,1.574 -2.503,2.361"
           style="fill:#627d1d;fill-opacity:1;fill-rule:evenodd;stroke:none"
           id="path45029"
           inkscape:connector-curvature="0" /><path
           d="m 290.409,341.164 c -6.324,0.872 -12.51,1.919 -18.566,3.131 -7.156,16.913 -23.627,26.506 -38.963,36.991 l 0.055,-0.109 c 11.467,-10.116 23.26,-19.976 28.903,-34.707 -0.531,0.125 -1.064,0.252 -1.593,0.378 4.628,-3.83 9.588,-7.266 14.833,-10.265 5.072,-0.901 10.253,-1.662 15.544,-2.273 0.763,1.499 1.527,2.995 2.29,4.492 -0.833,0.788 -1.669,1.575 -2.503,2.362"
           style="fill:#536b15;fill-opacity:1;fill-rule:evenodd;stroke:none"
           id="path45031"
           inkscape:connector-curvature="0" /><path
           d="m 298.416,330.264 c -27.463,48.251 17.951,124.71 126.48,112.012 -21.298,-66.247 -43.805,-120.899 -126.48,-112.012"
           style="fill:#627d1d;fill-opacity:1;fill-rule:evenodd;stroke:none"
           id="path45033"
           inkscape:connector-curvature="0" /><path
           d="m 298.416,330.264 c -20.653,36.284 -0.086,88.515 57.534,106.794 3.778,-37.911 -9.796,-73.537 -54.181,-107.119 -1.109,0.098 -2.222,0.203 -3.353,0.325"
           style="fill:#536b15;fill-opacity:1;fill-rule:evenodd;stroke:none"
           id="path45035"
           inkscape:connector-curvature="0" /><path
           d="m 301.916,334.701 c -23.241,40.832 15.19,105.533 107.03,94.788 -18.023,-56.059 -37.069,-102.308 -107.03,-94.788"
           style="fill:#9cbd48;fill-opacity:1;fill-rule:evenodd;stroke:none"
           id="path45037"
           inkscape:connector-curvature="0" /><path
           d="m 301.916,334.701 c -18.17,31.923 1.357,78.436 54.632,92.077 0.444,-32.496 -13.079,-63.292 -49.296,-92.547 -1.748,0.124 -3.521,0.274 -5.336,0.47"
           style="fill:#8bab3a;fill-opacity:1;fill-rule:evenodd;stroke:none"
           id="path45039"
           inkscape:connector-curvature="0" /><path
           d="m 304.214,337.92 c -20.683,36.337 13.518,93.918 95.25,84.356 -16.04,-49.89 -32.988,-91.047 -95.25,-84.356"
           style="fill:#aad149;fill-opacity:1;fill-rule:evenodd;stroke:none"
           id="path45041"
           inkscape:connector-curvature="0" /><path
           d="m 304.214,337.92 c -16.574,29.12 2.105,71.875 52.239,82.792 -1.201,-29.114 -14.198,-56.857 -45.402,-83.338 -2.22,0.118 -4.492,0.294 -6.837,0.546"
           style="fill:#a1c740;fill-opacity:1;fill-rule:evenodd;stroke:none"
           id="path45043"
           inkscape:connector-curvature="0" /><path
           d="m 303.47,332.815 c 2.774,4.43 5.662,8.7 8.652,12.822 17.295,-0.042 31.046,9.291 45.255,17.414 -12.69,-5.371 -25.231,-11.14 -40.162,-10.658 4.601,5.875 9.422,11.438 14.434,16.725 11.478,-0.943 22.312,2.591 32.844,8.243 -9.267,-3.114 -18.546,-6.319 -26.875,-2.164 4.776,4.699 9.71,9.174 14.779,13.452 8.484,-6.869 16.951,-3.67 25.419,-1.164 -13.97,-1.799 -19.73,-0.134 -21.589,4.337 9.836,8.097 18.944,14.488 29.627,21.371 -11.029,-5.388 -21.594,-11.41 -31.57,-18.234 -5.714,3.773 -4.666,8.272 -2.247,12.92 -4.64,-5.287 -6.283,-10.999 -3.898,-17.281 -4.991,-3.676 -9.819,-7.573 -14.469,-11.714 -5.016,6.236 -6.017,13.114 -1.983,20.796 -6.112,-8.434 -5.517,-16.859 -2.88,-25.281 -4.56,-4.352 -8.932,-8.961 -13.097,-13.848 -2.193,6.688 -4.386,13.378 -6.579,20.067 -1.183,-8.285 -3.318,-16.696 3.374,-23.935 -5.439,-6.751 -10.503,-14.015 -15.147,-21.851 1.08,-1.044 2.157,-2.087 3.236,-3.13 0.958,0.371 1.917,0.742 2.876,1.113"
           style="fill:#627d1d;fill-opacity:1;fill-rule:evenodd;stroke:none"
           id="path45045"
           inkscape:connector-curvature="0" /><path
           d="m 303.47,332.815 c 2.774,4.43 5.662,8.7 8.652,12.822 3.059,-0.007 6.006,0.28 8.865,0.801 2.206,2.174 4.293,4.357 6.272,6.547 -3.24,-0.479 -6.577,-0.704 -10.044,-0.592 4.601,5.875 9.422,11.438 14.434,16.725 2.748,-0.226 5.457,-0.194 8.137,0.061 0.948,1.459 1.868,2.921 2.73,4.386 -1.663,0.308 -3.298,0.834 -4.898,1.632 3.523,3.466 7.131,6.81 10.817,10.043 1.591,3.692 2.931,7.407 4.034,11.146 -3.62,3.457 -2.552,7.418 -0.432,11.493 -4.64,-5.287 -6.283,-10.999 -3.898,-17.281 -4.991,-3.676 -9.819,-7.573 -14.469,-11.714 -5.016,6.237 -6.017,13.114 -1.983,20.796 -6.112,-8.434 -5.518,-16.859 -2.88,-25.281 -4.56,-4.352 -8.932,-8.961 -13.097,-13.848 -2.193,6.689 -4.386,13.378 -6.579,20.067 -1.183,-8.285 -3.318,-16.696 3.374,-23.935 -5.439,-6.751 -10.502,-14.015 -15.147,-21.851 1.08,-1.044 2.157,-2.087 3.236,-3.13 0.959,0.37 1.917,0.742 2.876,1.113"
           style="fill:#536b15;fill-opacity:1;fill-rule:evenodd;stroke:none"
           id="path45047"
           inkscape:connector-curvature="0" /><path
           d="m 295.97,329.392 c -72.262,20.906 -106.262,127.776 4.454,206.27 45.8,-77.628 79.114,-145.763 -4.454,-206.27"
           style="fill:#627d1d;fill-opacity:1;fill-rule:evenodd;stroke:none"
           id="path45049"
           inkscape:connector-curvature="0" /><path
           d="m 294.777,336.31 c -61.15,17.692 -89.921,108.128 3.771,174.552 38.756,-65.692 66.947,-123.349 -3.771,-174.552"
           style="fill:#9cbd48;fill-opacity:1;fill-rule:evenodd;stroke:none"
           id="path45051"
           inkscape:connector-curvature="0" /><path
           d="m 293.695,341.129 c -54.419,15.745 -80.024,96.227 3.357,155.341 34.489,-58.462 59.578,-109.773 -3.357,-155.341"
           style="fill:#aad149;fill-opacity:1;fill-rule:evenodd;stroke:none"
           id="path45053"
           inkscape:connector-curvature="0" /><path
           d="m 298.037,335.892 c -1.839,6.311 -3.419,12.57 -4.764,18.782 15.697,14.301 18.978,34.153 23.86,53.286 -6.212,-15.384 -11.898,-31.003 -25.885,-42.949 -1.606,9.134 -2.708,18.166 -3.365,27.109 11.315,8.664 17.653,20.846 21.634,34.693 -5.33,-10.501 -10.582,-21.096 -22.203,-24.242 -0.292,8.215 -0.222,16.355 0.165,24.432 14.426,0.816 18.949,10.733 24.153,20.024 -10.879,-13.214 -17.729,-16.481 -23.804,-13.976 0.949,15.485 2.917,28.823 5.825,43.912 -4.69,-14.023 -8.338,-28.234 -10.666,-42.684 -8.88,-1.322 -12.349,3.622 -14.726,9.833 0.996,-8.634 5.118,-15.166 13.448,-18.875 -0.906,-7.466 -1.449,-14.996 -1.59,-22.6 -10.665,1.486 -18.329,6.881 -22.224,17.179 2.752,-12.702 11.566,-19.836 22.227,-25.273 0.148,-7.72 0.717,-15.516 1.749,-23.396 -8.556,4.237 -17.113,8.475 -25.669,12.711 7.069,-8.48 13.397,-17.865 26.569,-18.868 1.706,-10.622 4.259,-21.395 7.753,-32.339 2.002,-0.05 4.002,-0.101 6.004,-0.152 0.503,1.13 1.006,2.262 1.509,3.393"
           style="fill:#627d1d;fill-opacity:1;fill-rule:evenodd;stroke:none"
           id="path45055"
           inkscape:connector-curvature="0" /><path
           d="m 267.276,284.886 c 54.347,57.439 185.812,42.127 223.164,-94.108 -104.701,-8.313 -193.594,-9.271 -223.164,94.108"
           style="fill:#627d1d;fill-opacity:1;fill-rule:evenodd;stroke:none"
           id="path45057"
           inkscape:connector-curvature="0" /><path
           d="m 267.276,284.886 c 25.896,27.37 69.301,38.204 111.693,27.325 0.696,-9.639 1.657,-19.281 3.492,-28.252 -30.792,-21.161 -46.986,-58.459 -76.764,-64.005 -16.906,14.744 -30.045,35.649 -38.421,64.932"
           style="fill:#485e12;fill-opacity:1;fill-rule:evenodd;stroke:none"
           id="path45059"
           inkscape:connector-curvature="0" /><path
           d="m 267.276,284.886 c 2.843,3.005 5.909,5.798 9.149,8.398 40.972,-16.423 71.169,-53.427 79.11,-98.69 -41.399,10.949 -72.868,36.482 -88.259,90.292"
           style="fill:#536b15;fill-opacity:1;fill-rule:evenodd;stroke:none"
           id="path45061"
           inkscape:connector-curvature="0" /><path
           d="m 275.347,282.964 c 45.989,48.607 157.238,35.65 188.847,-79.635 -88.601,-7.036 -163.824,-7.846 -188.847,79.635"
           style="fill:#9cbd48;fill-opacity:1;fill-rule:evenodd;stroke:none"
           id="path45063"
           inkscape:connector-curvature="0" /><path
           d="m 275.347,282.964 c 23.93,25.292 65.528,33.904 104.382,20.115 0.633,-6.543 1.478,-12.989 2.732,-19.12 -27.577,-18.951 -43.445,-50.845 -67.847,-61.285 -17.583,12.596 -31.1,31.738 -39.267,60.29"
           style="fill:#82a132;fill-opacity:1;fill-rule:evenodd;stroke:none"
           id="path45065"
           inkscape:connector-curvature="0" /><path
           d="m 275.347,282.964 c 2.482,2.624 5.164,5.057 8.003,7.313 34.105,-16.094 59.759,-46.866 69.715,-84.488 -36.527,8.815 -64.32,30.336 -77.718,77.175"
           style="fill:#8bab3a;fill-opacity:1;fill-rule:evenodd;stroke:none"
           id="path45067"
           inkscape:connector-curvature="0" /><path
           d="m 281.078,281.858 c 40.929,43.257 139.933,31.726 168.063,-70.87 -78.849,-6.261 -145.793,-6.983 -168.063,70.87"
           style="fill:#aad149;fill-opacity:1;fill-rule:evenodd;stroke:none"
           id="path45069"
           inkscape:connector-curvature="0" /><path
           d="m 281.078,281.858 c 22.614,23.902 62.957,31.063 99.28,15.391 0.545,-4.534 1.224,-8.99 2.103,-13.29 -25.449,-17.488 -40.927,-45.999 -62.341,-58.501 -17.649,11.105 -31.152,28.816 -39.042,56.4"
           style="fill:#93b835;fill-opacity:1;fill-rule:evenodd;stroke:none"
           id="path45071"
           inkscape:connector-curvature="0" /><path
           d="m 281.078,281.858 c 2.096,2.215 4.352,4.279 6.735,6.202 29.718,-15.485 52.483,-42.343 63.141,-75.05 -32.857,7.735 -57.865,26.861 -69.876,68.848"
           style="fill:#a1c740;fill-opacity:1;fill-rule:evenodd;stroke:none"
           id="path45073"
           inkscape:connector-curvature="0" /><path
           d="m 281.078,281.858 c 2.096,2.215 4.352,4.279 6.735,6.202 20.889,-10.884 38.343,-27.388 50.571,-47.593 -5.838,-5.973 -11.781,-11.225 -18.267,-15.011 -17.65,11.104 -31.149,28.819 -39.039,56.402"
           style="fill:#87ab2c;fill-opacity:1;fill-rule:evenodd;stroke:none"
           id="path45075"
           inkscape:connector-curvature="0" /><path
           d="m 273.468,280.145 c 7.691,-1.061 15.212,-2.335 22.575,-3.807 8.761,-20.7 28.991,-32.383 47.743,-45.229 -14.079,12.435 -28.645,24.487 -35.576,42.583 10.669,-2.505 21.007,-5.432 31.052,-8.729 4.516,-14.203 15.047,-25.356 28.423,-35.065 -9.135,9.492 -18.407,18.952 -16.77,31.029 9.093,-3.315 17.946,-6.932 26.593,-10.812 -5.404,-13.645 3.444,-22.137 11.313,-30.984 -9.674,15.785 -10.251,23.52 -4.866,28.024 16.485,-7.631 30.182,-15.262 45.381,-24.526 -13.257,10.438 -27.174,20.001 -41.928,28.449 2.431,8.755 9.34,9.796 17.155,9.275 -9.855,2.849 -18.784,1.902 -26.464,-4.152 -7.753,4.092 -15.735,7.878 -23.971,11.325 6.274,9.176 15.507,13.881 28.444,12.976 -15.063,3.007 -26.694,-2 -37.279,-9.446 -8.489,3.232 -17.246,6.108 -26.296,8.596 8.357,6.034 16.714,12.066 25.072,18.098 -12.34,-2.81 -25.342,-4.545 -32.184,-16.238 -12.336,3.06 -25.207,5.41 -38.677,6.967 -0.927,-1.822 -1.854,-3.643 -2.784,-5.463 1.014,-0.958 2.03,-1.914 3.044,-2.871"
           style="fill:#627d1d;fill-opacity:1;fill-rule:evenodd;stroke:none"
           id="path45077"
           inkscape:connector-curvature="0" /><path
           d="m 273.468,280.145 c 7.691,-1.061 15.212,-2.335 22.575,-3.807 7.395,-17.475 22.966,-28.524 38.919,-39.271 0.331,0.319 0.662,0.638 0.992,0.961 -11.388,10.195 -22.098,20.923 -27.744,35.664 10.669,-2.505 21.007,-5.432 31.052,-8.729 1.748,-5.494 4.394,-10.531 7.758,-15.205 1.349,1.499 2.705,3.015 4.071,4.543 -0.403,2.126 -0.487,4.329 -0.176,6.626 1.541,-0.563 3.074,-1.132 4.602,-1.711 1.672,1.84 3.372,3.678 5.104,5.499 -2.147,0.96 -4.311,1.898 -6.493,2.811 5.48,8.016 13.219,12.62 23.712,13.052 0.236,0.183 0.47,0.367 0.708,0.548 -13.145,1.451 -23.631,-3.301 -33.255,-10.07 -8.489,3.232 -17.246,6.108 -26.296,8.596 8.357,6.034 16.714,12.066 25.072,18.098 -12.34,-2.81 -25.342,-4.545 -32.184,-16.238 -12.336,3.06 -25.207,5.41 -38.677,6.967 -0.927,-1.822 -1.854,-3.643 -2.784,-5.463 1.014,-0.958 2.03,-1.914 3.044,-2.871"
           style="fill:#485e12;fill-opacity:1;fill-rule:evenodd;stroke:none"
           id="path45079"
           inkscape:connector-curvature="0" /><path
           d="m 273.468,280.145 c 7.691,-1.061 15.212,-2.335 22.575,-3.807 8.703,-20.566 28.73,-32.232 47.379,-44.981 l -0.067,0.133 c -13.945,12.3 -28.285,24.29 -35.145,42.202 0.645,-0.152 1.292,-0.305 1.936,-0.461 -5.628,4.66 -11.659,8.836 -18.036,12.483 -6.169,1.097 -12.465,2.021 -18.902,2.765 -0.927,-1.822 -1.854,-3.643 -2.784,-5.463 1.014,-0.958 2.03,-1.914 3.044,-2.871"
           style="fill:#536b15;fill-opacity:1;fill-rule:evenodd;stroke:none"
           id="path45081"
           inkscape:connector-curvature="0" /><path
           d="m 263.732,293.399 c 33.395,-58.671 -21.829,-151.644 -153.795,-136.203 25.898,80.553 53.266,147.008 153.795,136.203"
           style="fill:#627d1d;fill-opacity:1;fill-rule:evenodd;stroke:none"
           id="path45083"
           inkscape:connector-curvature="0" /><path
           d="m 263.732,293.399 c 11.696,-20.55 12.506,-45.304 2.972,-68.137 -13.031,-11.186 -30.843,-17.491 -55.653,-16.652 -6.783,16.703 -29.524,34.286 -49.473,53.885 22.473,23.455 53.874,36.093 102.154,30.904"
           style="fill:#485e12;fill-opacity:1;fill-rule:evenodd;stroke:none"
           id="path45085"
           inkscape:connector-curvature="0" /><path
           d="m 263.732,293.399 c 25.113,-44.121 0.106,-107.633 -69.96,-129.859 -4.593,46.098 11.913,89.418 65.884,130.253 1.346,-0.119 2.701,-0.246 4.076,-0.394"
           style="fill:#536b15;fill-opacity:1;fill-rule:evenodd;stroke:none"
           id="path45087"
           inkscape:connector-curvature="0" /><path
           d="m 259.478,288.003 c 28.258,-49.65 -18.473,-128.325 -130.147,-115.259 21.917,68.166 45.075,124.402 130.147,115.259"
           style="fill:#9cbd48;fill-opacity:1;fill-rule:evenodd;stroke:none"
           id="path45089"
           inkscape:connector-curvature="0" /><path
           d="m 259.478,288.003 c 12.182,-21.405 10.415,-48.201 -4.474,-70.719 -11.506,-6.101 -25.871,-9.286 -43.953,-8.674 -6.055,14.912 -24.833,30.527 -42.985,47.651 19.305,23.386 46.87,36.53 91.412,31.742"
           style="fill:#82a132;fill-opacity:1;fill-rule:evenodd;stroke:none"
           id="path45091"
           inkscape:connector-curvature="0" /><path
           d="m 259.478,288.003 c 22.092,-38.817 -1.653,-95.375 -66.434,-111.962 -0.54,39.514 15.905,76.96 59.944,112.532 2.125,-0.15 4.281,-0.333 6.49,-0.57"
           style="fill:#8bab3a;fill-opacity:1;fill-rule:evenodd;stroke:none"
           id="path45093"
           inkscape:connector-curvature="0" /><path
           d="m 256.683,284.089 c 25.15,-44.186 -16.439,-114.202 -115.822,-102.574 19.504,60.664 40.114,110.711 115.822,102.574"
           style="fill:#aad149;fill-opacity:1;fill-rule:evenodd;stroke:none"
           id="path45095"
           inkscape:connector-curvature="0" /><path
           d="m 256.683,284.089 c 12.215,-21.462 8.683,-49.016 -9.567,-70.351 -10.017,-3.758 -21.899,-5.607 -36.065,-5.128 -5.57,13.716 -21.9,28.024 -38.608,43.554 17.301,23.093 42.323,36.43 84.24,31.925"
           style="fill:#93b835;fill-opacity:1;fill-rule:evenodd;stroke:none"
           id="path45097"
           inkscape:connector-curvature="0" /><path
           d="m 256.683,284.089 c 20.153,-35.409 -2.561,-87.398 -63.522,-100.673 1.461,35.403 17.265,69.136 55.209,101.337 2.698,-0.144 5.461,-0.357 8.313,-0.664"
           style="fill:#a1c740;fill-opacity:1;fill-rule:evenodd;stroke:none"
           id="path45099"
           inkscape:connector-curvature="0" /><path
           d="m 257.587,290.297 c -3.375,-5.388 -6.885,-10.579 -10.521,-15.592 -21.03,0.051 -37.752,-11.298 -55.028,-21.175 15.432,6.532 30.679,13.545 48.835,12.96 -5.595,-7.144 -11.457,-13.909 -17.552,-20.338 -13.957,1.147 -27.13,-3.149 -39.936,-10.022 11.268,3.785 22.552,7.683 32.68,2.631 -5.81,-5.713 -11.808,-11.155 -17.973,-16.357 -10.315,8.353 -20.611,4.463 -30.909,1.414 16.988,2.19 23.991,0.163 26.253,-5.272 -11.96,-9.845 -23.035,-17.617 -36.026,-25.987 13.412,6.552 26.258,13.875 38.388,22.172 6.95,-4.589 5.674,-10.059 2.733,-15.71 5.641,6.43 7.639,13.375 4.74,21.012 6.068,4.471 11.939,9.209 17.593,14.244 6.099,-7.582 7.315,-15.945 2.412,-25.286 7.432,10.256 6.708,20.5 3.504,30.74 5.542,5.292 10.859,10.896 15.924,16.84 2.667,-8.133 5.333,-16.268 7.999,-24.401 1.437,10.074 4.035,20.302 -4.102,29.104 6.614,8.209 12.769,17.041 18.416,26.57 -1.311,1.269 -2.621,2.538 -3.933,3.806 -1.166,-0.451 -2.331,-0.903 -3.497,-1.353"
           style="fill:#627d1d;fill-opacity:1;fill-rule:evenodd;stroke:none"
           id="path45101"
           inkscape:connector-curvature="0" /><path
           d="m 257.587,290.297 c -3.375,-5.388 -6.885,-10.579 -10.521,-15.592 -3.72,0.009 -7.303,-0.341 -10.781,-0.974 -2.681,-2.643 -5.221,-5.297 -7.626,-7.961 3.941,0.582 7.998,0.856 12.214,0.72 -5.595,-7.144 -11.457,-13.909 -17.552,-20.338 -3.34,0.275 -6.635,0.237 -9.892,-0.073 -1.155,-1.774 -2.272,-3.551 -3.321,-5.334 2.023,-0.374 4.01,-1.013 5.957,-1.984 -4.285,-4.213 -8.672,-8.28 -13.153,-12.211 -1.937,-4.49 -3.566,-9.008 -4.907,-13.553 4.402,-4.206 3.105,-9.022 0.526,-13.976 5.641,6.43 7.639,13.375 4.74,21.012 6.068,4.471 11.939,9.209 17.593,14.244 6.099,-7.582 7.315,-15.945 2.412,-25.286 7.432,10.256 6.708,20.5 3.504,30.74 5.542,5.292 10.859,10.896 15.924,16.84 2.667,-8.133 5.333,-16.268 7.999,-24.401 1.437,10.074 4.035,20.302 -4.102,29.104 6.614,8.209 12.769,17.041 18.416,26.57 -1.311,1.269 -2.621,2.538 -3.933,3.806 -1.166,-0.451 -2.331,-0.903 -3.497,-1.353"
           style="fill:#536b15;fill-opacity:1;fill-rule:evenodd;stroke:none"
           id="path45103"
           inkscape:connector-curvature="0" /><path
           d="m 266.708,294.46 c 87.866,-25.423 129.209,-155.374 -5.42,-250.819 -55.686,94.394 -96.197,177.244 5.42,250.819"
           style="fill:#627d1d;fill-opacity:1;fill-rule:evenodd;stroke:none"
           id="path45105"
           inkscape:connector-curvature="0" /><path
           d="m 266.708,294.46 c 30.005,-8.682 54.576,-29.558 68.576,-57.08 -17.008,-16.454 -35.522,-25.817 -66.2,-9.977 v 0.003 l -0.002,-0.001 c -13.218,-12.517 -31.676,-19.687 -58.031,-18.795 -0.957,2.356 -2.236,4.73 -3.775,7.122 6.606,27.385 24.724,53.598 59.432,78.728"
           style="fill:#485e12;fill-opacity:1;fill-rule:evenodd;stroke:none"
           id="path45107"
           inkscape:connector-curvature="0" /><path
           d="m 268.156,286.046 c 74.357,-21.513 109.342,-131.48 -4.585,-212.248 -47.124,79.878 -81.404,149.987 4.585,212.248"
           style="fill:#9cbd48;fill-opacity:1;fill-rule:evenodd;stroke:none"
           id="path45109"
           inkscape:connector-curvature="0" /><path
           d="m 268.156,286.046 c 27.536,-7.967 49.66,-28.07 60.835,-54.324 -15.399,-12.701 -32.961,-18.234 -59.907,-4.319 v 0.003 l -0.002,-0.001 c -12.383,-11.726 -29.365,-18.759 -53.13,-18.868 3.072,27.137 18.264,52.936 52.204,77.509"
           style="fill:#82a132;fill-opacity:1;fill-rule:evenodd;stroke:none"
           id="path45111"
           inkscape:connector-curvature="0" /><path
           d="m 269.472,280.187 c 66.172,-19.146 97.307,-117.01 -4.08,-188.888 -41.939,71.086 -72.446,133.478 4.08,188.888"
           style="fill:#aad149;fill-opacity:1;fill-rule:evenodd;stroke:none"
           id="path45113"
           inkscape:connector-curvature="0" /><path
           d="m 269.472,280.187 c 25.633,-7.417 45.999,-26.649 55.451,-51.602 -14.454,-10.375 -31.233,-13.888 -55.839,-1.182 v 0.003 l -0.002,-0.001 c -11.166,-10.573 -26.071,-17.33 -46.314,-18.636 2.083,25.045 15.484,48.812 46.704,71.418"
           style="fill:#93b835;fill-opacity:1;fill-rule:evenodd;stroke:none"
           id="path45115"
           inkscape:connector-curvature="0" /><path
           d="m 264.193,286.555 c 2.237,-7.674 4.159,-15.286 5.792,-22.837 -19.087,-17.391 -23.075,-41.529 -29.013,-64.795 7.555,18.707 14.467,37.698 31.477,52.223 1.952,-11.106 3.292,-22.089 4.09,-32.962 -13.76,-10.536 -21.464,-25.349 -26.304,-42.188 6.481,12.77 12.867,25.653 26.996,29.479 0.356,-9.988 0.27,-19.888 -0.199,-29.708 -17.544,-0.994 -23.042,-13.051 -29.37,-24.349 13.228,16.067 21.557,20.041 28.945,16.995 -1.155,-18.829 -3.546,-35.049 -7.083,-53.395 5.703,17.05 10.139,34.331 12.969,51.901 10.798,1.606 15.018,-4.403 17.906,-11.955 -1.209,10.497 -6.224,18.44 -16.351,22.949 1.102,9.08 1.761,18.235 1.932,27.483 12.969,-1.808 22.288,-8.37 27.025,-20.89 -3.349,15.445 -14.066,24.119 -27.027,30.73 -0.181,9.388 -0.873,18.868 -2.128,28.45 10.403,-5.153 20.809,-10.305 31.213,-15.457 -8.596,10.312 -16.291,21.723 -32.306,22.944 -2.075,12.915 -5.18,26.015 -9.429,39.323 -2.433,0.062 -4.866,0.122 -7.299,0.186 -0.612,-1.376 -1.224,-2.751 -1.836,-4.127"
           style="fill:#627d1d;fill-opacity:1;fill-rule:evenodd;stroke:none"
           id="path45117"
           inkscape:connector-curvature="0" /><path
           d="m 264.193,286.555 c 2.237,-7.674 4.159,-15.286 5.792,-22.837 -15.308,-13.948 -20.904,-32.238 -25.583,-50.935 0.886,0.292 1.756,0.598 2.613,0.919 5.861,13.639 12.912,26.752 25.434,37.444 1.595,-9.076 2.782,-18.069 3.597,-26.988 3.407,-1.419 6.655,-2.509 9.762,-3.295 -0.309,7.545 -0.954,15.152 -1.958,22.823 10.403,-5.153 20.809,-10.305 31.213,-15.457 -8.596,10.312 -16.291,21.723 -32.306,22.944 -2.075,12.915 -5.18,26.015 -9.429,39.323 -2.433,0.062 -4.866,0.122 -7.299,0.186 -0.612,-1.376 -1.224,-2.751 -1.836,-4.127"
           style="fill:#485e12;fill-opacity:1;fill-rule:evenodd;stroke:none"
           id="path45119"
           inkscape:connector-curvature="0" /><path
           d="m 335.563,392.047 c 37.659,5.87 26.214,-54.673 34.492,-98.714 -37.276,-27.882 -50.804,-84.343 -102.167,-55.472 22.558,51.395 45.116,102.791 67.675,154.186"
           style="fill:#820000;fill-opacity:1;fill-rule:evenodd;stroke:none"
           id="path45121"
           inkscape:connector-curvature="0" /><path
           d="m 333.471,381.852 c 32.913,5.129 22.911,-47.783 30.145,-86.273 -32.578,-24.368 -44.4,-73.713 -89.291,-48.481 19.716,44.918 39.43,89.836 59.146,134.754"
           style="fill:#f21717;fill-opacity:1;fill-rule:evenodd;stroke:none"
           id="path45123"
           inkscape:connector-curvature="0" /><path
           d="m 333.931,381.913 0.025,0.003 c 17.947,-16.641 31.374,-34.432 17.562,-59.147 l -25,43.243 6.834,15.57 z"
           style="fill:#cc0000;fill-opacity:1;fill-rule:evenodd;stroke:none"
           id="path45125"
           inkscape:connector-curvature="0" /><path
           d="m 305.304,241.226 c -8.535,-2.394 -18.473,-1.158 -30.979,5.872 l 13.358,30.432 25.23,19.477 c -0.137,0.251 -0.274,0.502 -0.413,0.752 10.13,-4.783 20.26,-9.568 30.39,-14.351 -8.054,-13.792 -18.443,-23.917 -34.012,-25.899 0.137,-6.272 -1.311,-11.537 -3.574,-16.283"
           style="fill:#cc0000;fill-opacity:1;fill-rule:evenodd;stroke:none"
           id="path45127"
           inkscape:connector-curvature="0" /><path
           d="m 176.428,417.408 c 0.409,23.612 48.316,23.074 72.472,34.611 27.788,-25.616 104.278,-2.125 83.363,-76.846 -51.945,14.078 -103.89,28.156 -155.835,42.235"
           style="fill:#820000;fill-opacity:1;fill-rule:evenodd;stroke:none"
           id="path45129"
           inkscape:connector-curvature="0" /><path
           d="m 183.884,416.771 c 0.343,19.675 41.743,20.554 61.87,30.167 23.155,-21.343 96.068,-3.299 78.642,-65.558 -43.281,11.73 -97.23,23.661 -140.512,35.391"
           style="fill:#f21717;fill-opacity:1;fill-rule:evenodd;stroke:none"
           id="path45131"
           inkscape:connector-curvature="0" /><path
           d="m 183.884,416.771 c 0.023,1.229 0.203,2.385 0.531,3.474 18.332,0.689 38.109,9.617 53.618,4.404 21.759,3.5 37.44,-0.73 51.504,-2.271 10.261,-1.123 19.991,-0.422 27.943,-1.565 8.672,-7.374 12.597,-19.133 6.916,-39.433 -43.281,11.73 -97.23,23.661 -140.512,35.391"
           style="fill:#cc0000;fill-opacity:1;fill-rule:evenodd;stroke:none"
           id="path45133"
           inkscape:connector-curvature="0" /><path
           d="m 157.417,355.595 c -3.953,-15.872 -18.286,-32.575 -11.859,-47.617 14.786,-34.606 60.376,-62.656 70.035,-88.55 31.375,-1.156 50.333,11.485 62.387,31.798 -28.442,37.968 -56.887,75.938 -85.329,113.907 -11.745,-3.179 -23.489,-6.359 -35.234,-9.538"
           style="fill:#820000;fill-opacity:1;fill-rule:evenodd;stroke:none"
           id="path45135"
           inkscape:connector-curvature="0" /><path
           d="m 161.333,352.071 c -3.382,-13.577 -15.642,-27.866 -10.145,-40.733 12.647,-29.603 59.697,-57.421 67.961,-79.571 26.838,-0.99 38.83,8.012 49.141,25.388 -24.331,32.481 -48.662,64.961 -72.994,97.441 -10.046,-2.72 -23.916,0.195 -33.963,-2.525"
           style="fill:#f21717;fill-opacity:1;fill-rule:evenodd;stroke:none"
           id="path45137"
           inkscape:connector-curvature="0" /><path
           d="m 184.012,329.052 c 0.985,-15.662 -10.461,-31.759 -2.731,-46.937 6.279,-12.33 25.002,-16.584 34.993,-26.156 4.439,-4.252 1.504,-12.267 6.275,-16.144 7.27,-5.909 16.98,-5.091 25.361,-3.294 -21.299,30.844 -42.599,61.687 -63.898,92.531"
           style="fill:#cc0000;fill-opacity:1;fill-rule:evenodd;stroke:none"
           id="path45139"
           inkscape:connector-curvature="0" /><path
           d="m 255.429,407.197 c -12.416,26.425 -69.48,5.623 -98.202,10.866 -17.316,-47.571 10.727,-105.311 39.821,-84.752 22.634,15.991 70.165,48.804 58.381,73.886"
           style="fill:#820000;fill-opacity:1;fill-rule:evenodd;stroke:none"
           id="path45141"
           inkscape:connector-curvature="0" /><path
           d="m 249.204,404.986 c -10.776,22.934 -63.523,4.68 -88.453,9.229 -15.029,-41.289 12.53,-91.201 37.783,-73.359 19.644,13.88 60.899,42.36 50.67,64.13"
           style="fill:#f21717;fill-opacity:1;fill-rule:evenodd;stroke:none"
           id="path45143"
           inkscape:connector-curvature="0" /><path
           d="m 242.351,412.402 c -5.91,3.51 -14.313,4.524 -23.703,4.425 -2.295,-5.261 -3.361,-11.048 -2.454,-17.682 -40.423,-11.297 -58.46,-27.849 -37.164,-53.636 17.028,13.668 34.053,27.335 51.079,41.004 0.124,0.454 0.25,0.907 0.375,1.362 z"
           style="fill:#cc0000;fill-opacity:1;fill-rule:evenodd;stroke:none"
           id="path45145"
           inkscape:connector-curvature="0" /><path
           d="m 216.349,375.983 c -5.418,14.259 11.691,40.073 26.195,44.798 15.283,4.98 30.35,0.483 46.288,-1.609 10.919,-1.434 21.518,2.88 29.383,-4.83 10.144,-9.947 4.767,-23.002 11.671,-35.42 6.309,-11.349 18.186,-18.145 22.577,-30.364 4.734,-13.18 -1.855,-24.127 -3.256,-38.061 -1.429,-14.189 -1.135,-24.764 -12.478,-33.407 -12.842,-9.786 -22.364,-15.61 -34.232,-4.664 -36.976,34.1 -68.279,56.537 -86.148,103.557"
           style="fill:#820000;fill-opacity:1;fill-rule:evenodd;stroke:none"
           id="path45147"
           inkscape:connector-curvature="0" /><path
           d="m 219.549,376.782 c -4.718,12.416 10.181,34.896 22.809,39.011 13.309,4.336 26.43,0.42 40.309,-1.402 9.51,-1.248 18.737,2.509 25.587,-4.206 8.835,-8.662 4.152,-20.031 10.165,-30.844 5.494,-9.883 15.837,-15.8 19.66,-26.442 4.123,-11.477 -1.615,-21.01 -2.837,-33.144 -1.243,-12.356 -0.988,-21.564 -10.865,-29.092 -11.183,-8.521 -19.474,-13.592 -29.809,-4.06 -32.2,29.695 -59.459,49.232 -75.019,90.179"
           style="fill:#f21717;fill-opacity:1;fill-rule:evenodd;stroke:none"
           id="path45149"
           inkscape:connector-curvature="0" /><path
           d="m 293.672,414.3 c 5.421,0.177 10.438,-0.052 14.582,-4.115 8.835,-8.662 4.152,-20.031 10.165,-30.844 5.494,-9.883 15.837,-15.8 19.66,-26.442 4.123,-11.477 -1.615,-21.01 -2.837,-33.144 -1.243,-12.356 -0.988,-21.564 -10.865,-29.092 -5.278,-4.022 -9.912,-7.274 -14.422,-8.586 3.693,10.546 7.84,20.944 11.079,31.639 3.679,12.146 11.799,24.319 9.66,36.829 -1.834,10.729 -16.079,15.537 -20.326,25.559 -3.925,9.255 0.806,20.774 -3.221,29.986 -2.105,4.82 -8.984,5.474 -13.475,8.21"
           style="fill:#cc0000;fill-opacity:1;fill-rule:evenodd;stroke:none"
           id="path45151"
           inkscape:connector-curvature="0" /><path
           d="m 234.223,390.579 c -15.339,12.36 -44.861,-1.72 -56.388,-17.693 -10.127,-14.035 8.506,-34.337 6.441,-51.521 -1.439,-11.974 -7.573,-24.936 -1.611,-35.42 9.773,-17.185 21.081,-13.952 36.628,-26.162 6.879,-5.401 7.951,-17.429 16.016,-20.809 26.304,-11.018 67.046,7.662 67.188,33.452 0.251,45.486 -32.856,89.612 -68.274,118.153"
           style="fill:#820000;fill-opacity:1;fill-rule:evenodd;stroke:none"
           id="path45153"
           inkscape:connector-curvature="0" /><path
           d="m 233.256,384.506 c -13.111,10.565 -38.343,-1.47 -48.196,-15.124 -8.656,-11.995 7.269,-29.349 5.504,-44.036 -1.231,-10.235 -6.471,-21.314 -1.377,-30.275 8.354,-14.689 18.018,-11.925 31.309,-22.362 5.878,-4.616 6.795,-14.898 13.689,-17.786 22.483,-9.418 57.306,6.549 57.428,28.593 0.214,38.879 -28.084,76.594 -58.357,100.99"
           style="fill:#f21717;fill-opacity:1;fill-rule:evenodd;stroke:none"
           id="path45155"
           inkscape:connector-curvature="0" /><path
           d="m 230.799,376.431 c 2.222,28.91 29.661,46.704 55.1,14.773 28.477,-35.745 58.873,-72.555 29.382,-107.469 -11.096,-13.134 -40.366,-32.006 -55.922,-11.181 -18.143,15.315 -19.04,69.251 -28.56,103.877"
           style="fill:#820000;fill-opacity:1;fill-rule:evenodd;stroke:none"
           id="path45157"
           inkscape:connector-curvature="0" /><path
           d="m 234.602,375.741 c 1.899,24.704 25.346,39.909 47.084,12.624 24.334,-30.544 48.204,-61.377 29.131,-95.455 -12.701,-22.696 -54.671,-23.56 -52.668,-5.162 -15.504,13.089 -15.412,58.405 -23.547,87.993"
           style="fill:#f21717;fill-opacity:1;fill-rule:evenodd;stroke:none"
           id="path45159"
           inkscape:connector-curvature="0" /><path
           d="m 243.868,397.114 c 9.211,8.772 23.866,8.763 37.818,-8.749 24.334,-30.544 48.204,-61.377 29.131,-95.455 -8.22,-14.69 -28.701,-20.23 -41.586,-17.324 11.797,1.139 27.892,5.477 32.975,16.699 8.084,17.847 7.565,40.234 1.208,58.765 -6.231,18.165 -10.851,21.066 -23.547,36.426 -13.089,15.837 -27.205,14.726 -35.999,9.638"
           style="fill:#cc0000;fill-opacity:1;fill-rule:evenodd;stroke:none"
           id="path45161"
           inkscape:connector-curvature="0" /><path
           d="m 227.948,374.421 c 15.55,11.862 35.885,11.94 45.417,0.177 23.69,-29.236 -25.314,-74.8 -14.006,-102.044 -45.765,10.586 -35.031,49.782 -42.707,59.793 -9.332,12.166 -4.253,30.213 11.296,42.074"
           style="fill:#820000;fill-opacity:1;fill-rule:evenodd;stroke:none"
           id="path45163"
           inkscape:connector-curvature="0" /><path
           d="m 231.894,374.747 c 13.999,10.351 31.748,10.42 39.636,0.154 19.608,-25.511 -26.747,-65.359 -17.87,-89.133 -32.339,9.501 -24.941,41.384 -32.831,51.649 -7.891,10.266 -2.936,26.979 11.065,37.33"
           style="fill:#f21717;fill-opacity:1;fill-rule:evenodd;stroke:none"
           id="path45165"
           inkscape:connector-curvature="0" /><path
           d="m 230.112,372.828 c 13.837,10.23 31.375,10.298 39.174,0.152 7.798,-10.145 2.902,-26.662 -10.935,-36.893 -13.837,-10.229 -31.376,-10.297 -39.173,-0.151 -7.799,10.145 -2.904,26.663 10.934,36.892"
           style="fill:#820000;fill-opacity:1;fill-rule:evenodd;stroke:none"
           id="path45167"
           inkscape:connector-curvature="0" /><path
           d="m 231.216,372.787 c 13.067,9.241 28.914,9.303 35.397,0.137 6.48,-9.165 1.142,-24.087 -11.925,-33.328 -13.067,-9.242 -28.916,-9.303 -35.397,-0.138 -6.482,9.167 -1.143,24.088 11.925,33.329"
           style="fill:#f21717;fill-opacity:1;fill-rule:evenodd;stroke:none"
           id="path45169"
           inkscape:connector-curvature="0" /><path
           d="m 241.53,374.931 c 6.472,4.578 14.324,4.609 17.535,0.068 3.211,-4.541 0.566,-11.932 -5.908,-16.51 -6.472,-4.578 -14.323,-4.609 -17.534,-0.068 -3.212,4.54 -0.567,11.932 5.907,16.51"
           style="fill:#ffabab;fill-opacity:1;fill-rule:evenodd;stroke:none"
           id="path45171"
           inkscape:connector-curvature="0" /><path
           d="m 238.747,372.261 c 6.474,4.577 14.325,4.608 17.536,0.068 1.326,-1.876 1.653,-4.24 1.122,-6.69 -0.215,0.927 -0.595,1.799 -1.151,2.585 -3.211,4.54 -11.061,4.51 -17.536,-0.068 -3.797,-2.686 -6.276,-6.341 -7.029,-9.821 -1.028,4.431 1.706,10.141 7.058,13.926"
           style="fill:#820000;fill-opacity:1;fill-rule:evenodd;stroke:none"
           id="path45173"
           inkscape:connector-curvature="0" /><path
           d="m 258.686,358.022 c 0.405,-4.247 -2.303,-9.364 -7.232,-12.849 -6.473,-4.578 -14.324,-4.609 -17.536,-0.068 -2.141,3.028 -1.677,7.324 0.789,11.208 0.126,-1.332 0.558,-2.578 1.325,-3.661 3.211,-4.541 11.061,-4.51 17.535,0.068 2.157,1.525 3.888,3.362 5.119,5.302"
           style="fill:#820000;fill-opacity:1;fill-rule:evenodd;stroke:none"
           id="path45175"
           inkscape:connector-curvature="0" /><path
           d="m 254.58,366.087 c 1.15,-4.815 -2.377,-9.814 -7.878,-11.167 -2.274,-0.558 -4.53,-0.406 -6.474,0.304 0.925,-0.004 1.874,0.105 2.826,0.339 5.502,1.353 9.029,6.352 7.878,11.167 -0.676,2.826 -2.811,4.959 -5.574,5.968 4.416,-0.02 8.271,-2.629 9.222,-6.611"
           style="fill:#820000;fill-opacity:1;fill-rule:evenodd;stroke:none"
           id="path45177"
           inkscape:connector-curvature="0" /><path
           d="m 238.522,367.486 c -1.447,-3.464 0.448,-7.06 4.232,-8.032 1.564,-0.402 3.204,-0.293 4.696,0.218 -0.666,-0.003 -1.334,0.076 -1.989,0.245 -3.784,0.972 -5.68,4.568 -4.235,8.032 0.849,2.031 2.66,3.566 4.774,4.291 -3.178,-0.013 -6.283,-1.889 -7.478,-4.754"
           style="fill:#820000;fill-opacity:1;fill-rule:evenodd;stroke:none"
           id="path45179"
           inkscape:connector-curvature="0" /><path
           d="m 274.485,353.335 c -11.464,-25.783 -56.331,-47.353 -25.156,-66.212 -11.145,19.457 23.149,42.469 25.156,66.212"
           style="fill:#cc0000;fill-opacity:1;fill-rule:evenodd;stroke:none"
           id="path45181"
           inkscape:connector-curvature="0" /><path
           d="m 222.482,332.768 c 5.293,-13.046 3.042,-20.837 10.629,-29.121 -2.924,6.819 4.009,14.84 9.926,21.081 -8.741,-1.33 -15.25,0.357 -20.555,8.04"
           style="fill:#ffabab;fill-opacity:1;fill-rule:evenodd;stroke:none"
           id="path45183"
           inkscape:connector-curvature="0" /><path
           d="m 251.892,385.566 c 20.896,7.605 39.146,-10.416 41.457,-35.822 1.984,-21.81 -5.964,-38.563 -14.454,-58.75 -3.53,-8.393 -20.193,-9.006 -14.69,3.622 8.66,19.878 16.856,35.014 19.484,56.536 2.769,22.666 -10.035,37.424 -31.797,34.414"
           style="fill:#ffabab;fill-opacity:1;fill-rule:evenodd;stroke:none"
           id="path45185"
           inkscape:connector-curvature="0" /><path
           d="m 229.56,383.955 c -20.915,3.697 -33.89,-5.904 -42.664,-18.717 -6.364,-9.294 6.848,-21.748 7.244,-33.005 0.356,-10.129 -7.66,-20.198 -5.032,-29.986 3.208,-11.936 10.548,-17.515 20.73,-18.717 -7.237,3.486 -14.988,12.647 -14.289,22.339 0.653,9.057 6.232,18.123 5.434,27.169 -0.832,9.432 -8.555,18.258 -6.843,27.571 2.451,13.336 18.411,21.614 35.42,23.346"
           style="fill:#ffabab;fill-opacity:1;fill-rule:evenodd;stroke:none"
           id="path45187"
           inkscape:connector-curvature="0" /><path
           d="m 203.801,291.278 c 6.976,-6.104 15.476,-9.362 21.734,-16.2 4.698,-5.133 5.043,-15.197 11.673,-17.307 10.59,-3.373 25.76,-2.617 33.207,3.018 -10.231,-1.576 -21.966,0.628 -31.597,5.232 -5.237,2.504 -5.127,10.865 -9.659,14.491 -7.217,5.773 -17.174,6.473 -25.358,10.766"
           style="fill:#ffabab;fill-opacity:1;fill-rule:evenodd;stroke:none"
           id="path45189"
           inkscape:connector-curvature="0" /><path
           d="m 226.046,396.631 c 4.041,8.608 9.913,15.631 19.734,17.854 22.194,5.021 33.925,-5.976 51.508,-4.973 -15.83,-4.429 -25.948,6.647 -49.507,0.503 -7.572,-1.975 -16.838,-6.273 -21.735,-13.384"
           style="fill:#ffabab;fill-opacity:1;fill-rule:evenodd;stroke:none"
           id="path45191"
           inkscape:connector-curvature="0" /><path
           d="m 208.952,415.244 c -15.43,-1.073 -32.368,-6.473 -46.288,-3.22 -3.158,-8.096 -3.752,-16.925 -2.214,-26.364 0.845,7.249 1.497,14.588 6.44,19.924 14.121,-1.811 28.041,6.44 42.062,9.66"
           style="fill:#ffabab;fill-opacity:1;fill-rule:evenodd;stroke:none"
           id="path45193"
           inkscape:connector-curvature="0" /><path
           d="m 160.151,340.729 c -13.001,-24.969 -5.58,-35.999 15.898,-58.162 -13.358,21.697 -19.845,33.399 -15.898,58.162"
           style="fill:#ffabab;fill-opacity:1;fill-rule:evenodd;stroke:none"
           id="path45195"
           inkscape:connector-curvature="0" /><path
           d="m 190.337,424.347 c 5.5,9.056 37.768,10.062 54.539,20.527 -8.254,-20.469 -31.069,-16.711 -54.539,-20.527"
           style="fill:#ffabab;fill-opacity:1;fill-rule:evenodd;stroke:none"
           id="path45197"
           inkscape:connector-curvature="0" /></g></g></g></svg>