<?xml version="1.0" standalone="no"?>
<!DOCTYPE svg PUBLIC "-//W3C//DTD SVG 20010904//EN"
 "http://www.w3.org/TR/2001/REC-SVG-20010904/DTD/svg10.dtd">
<svg version="1.0" xmlns="http://www.w3.org/2000/svg"
 width="1280.000000pt" height="1270.000000pt" viewBox="0 0 1280.000000 1270.000000"
 preserveAspectRatio="xMidYMid meet">
<metadata>
Created by potrace 1.15, written by Peter Selinger 2001-2017
</metadata>
<g transform="translate(0.000000,1270.000000) scale(0.100000,-0.100000)"
fill="#000000" stroke="none">
<path d="M9320 12694 c-427 -29 -780 -113 -1070 -257 -496 -245 -1152 -845
-1490 -1363 -86 -132 -231 -450 -270 -594 -45 -163 -100 -505 -137 -845 -25
-235 -25 -737 0 -855 108 -502 366 -966 755 -1358 199 -200 363 -325 692 -527
214 -132 292 -184 440 -294 273 -204 384 -370 300 -446 -28 -25 -135 -16 -360
29 -356 71 -570 74 -913 16 -342 -59 -742 -190 -1467 -480 -987 -395 -1124
-430 -1655 -417 -344 8 -532 31 -1055 127 -705 129 -1248 161 -1580 94 -160
-33 -283 -114 -582 -385 -243 -222 -307 -259 -558 -324 -181 -47 -248 -76
-310 -131 -161 -146 19 -366 485 -595 277 -135 411 -169 685 -169 74 -1 207
-5 295 -10 218 -12 315 -38 512 -135 590 -292 1139 -857 1467 -1512 107 -215
199 -447 241 -608 41 -158 70 -668 45 -798 -29 -154 -193 -323 -474 -488 -186
-109 -316 -252 -287 -315 9 -21 17 -24 58 -24 27 0 77 9 113 20 89 27 184 26
288 -5 224 -65 619 -55 747 19 57 34 250 236 378 396 118 147 285 394 387 571
82 142 167 263 288 407 97 116 148 159 217 183 59 21 321 16 695 -12 403 -30
1036 -33 1356 -6 412 34 608 67 989 166 109 29 227 55 260 58 54 5 67 2 120
-25 202 -102 810 -595 869 -704 34 -62 -4 -128 -103 -178 -134 -67 -459 -188
-691 -256 -123 -36 -344 -214 -389 -315 -20 -43 -27 -121 -15 -153 23 -61 443
-54 1154 19 263 28 224 13 363 142 144 134 219 218 293 329 139 209 210 446
254 849 54 503 179 1061 341 1531 66 191 111 289 186 400 172 256 403 700 476
915 54 156 90 339 122 619 70 619 -20 1182 -269 1678 -80 159 -115 214 -445
712 -712 1070 -922 1459 -987 1823 -22 124 -22 359 0 450 42 177 147 297 357
410 170 92 471 197 562 197 103 0 287 -129 533 -374 247 -247 352 -384 502
-658 82 -150 150 -258 161 -258 15 0 64 40 94 76 89 105 172 253 296 527 45
98 109 235 142 303 l62 125 4 112 c14 312 -110 922 -240 1183 -163 329 -576
700 -1047 938 -440 224 -955 370 -1520 431 -131 15 -558 27 -670 19z m1200
-1050 c300 -45 569 -139 855 -299 172 -96 265 -165 391 -290 145 -143 204
-245 223 -378 15 -104 -26 -157 -116 -157 -47 1 -68 13 -120 70 -79 87 -332
203 -577 265 -444 111 -836 49 -1158 -185 -87 -64 -231 -208 -277 -279 -78
-122 -194 -425 -246 -646 -54 -227 -59 -281 -60 -600 0 -420 12 -476 166 -784
189 -377 507 -849 809 -1201 373 -433 624 -785 770 -1079 162 -325 216 -550
207 -856 -7 -235 -25 -323 -94 -460 -120 -239 -410 -697 -608 -960 -134 -177
-237 -281 -389 -389 -466 -332 -923 -552 -1405 -678 -192 -50 -334 -77 -626
-119 -257 -37 -243 -37 -675 11 -359 41 -1028 185 -1560 336 -420 120 -674
230 -1195 520 -576 320 -1088 657 -1172 772 -49 67 -86 101 -117 108 -108 23
-554 294 -770 468 -88 71 -171 167 -182 212 -11 43 4 74 44 92 28 12 66 16
162 15 151 -1 297 -26 734 -122 391 -87 481 -101 648 -101 404 0 1154 186
1913 475 782 298 1089 370 1626 382 316 7 429 -10 429 -63 0 -46 -110 -91
-508 -205 -514 -147 -848 -292 -1177 -510 -213 -142 -343 -267 -396 -384 -35
-75 -21 -162 33 -211 76 -70 499 -212 828 -278 631 -126 1360 -146 1904 -51
48 8 165 35 259 59 678 174 1112 430 1392 821 65 91 125 206 146 280 21 76 17
267 -10 408 -56 296 -107 384 -428 737 -756 834 -1304 1589 -1652 2280 -164
325 -259 593 -275 775 -16 175 42 604 124 920 46 178 64 228 126 338 295 524
837 882 1429 946 61 7 119 14 130 16 45 8 347 -6 445 -21z m-8184 -6803 c42
-26 74 -94 74 -159 0 -54 -22 -122 -38 -122 -34 0 -130 156 -147 236 -12 60
48 84 111 45z m-978 -28 c102 -53 130 -127 69 -188 -68 -68 -208 -69 -284 -2
-82 72 -76 116 27 201 30 24 40 28 82 24 27 -3 74 -19 106 -35z"/>
</g>
</svg>
