<?xml version="1.0" encoding="UTF-8"?>
<!DOCTYPE svg PUBLIC "-//W3C//DTD SVG 1.1//EN" "http://www.w3.org/Graphics/SVG/1.1/DTD/svg11.dtd">
<svg version="1.1" xmlns="http://www.w3.org/2000/svg" xmlns:xlink="http://www.w3.org/1999/xlink" x="0" y="0" width="399.234" height="287.045" viewBox="0, 0, 399.234, 287.045">
  <defs>
    <clipPath id="Clip_1">
      <path d="M31.837,290.029 L392.591,290.029 L392.591,185.081 L31.837,185.081 z"/>
    </clipPath>
  </defs>
  <g id="Layer_1">
    <g clip-path="url(#Clip_1)" id="g856">
      <path d="M71.717,205.996 C73.656,208.624 74.05,211.906 74.7,215.083 C79.711,216.72 84.829,218.161 90.191,218.959 C97.142,219.455 102.757,216.229 109.213,215.187 C111.597,214.785 113.78,213.194 116.266,213.545 C120.338,214.387 124.607,215.232 128.43,216.131 C133.198,213.644 138.467,212.158 143.726,210.81 C150.285,211.507 157.184,210.615 163.345,211.957 C165.379,213.248 167.862,214.636 170.396,213.449 C180.578,211.807 190.361,212.653 200.543,213.148 C204.314,214.737 207.845,217.266 211.766,218.161 C214.992,219.554 218.718,219.704 222.295,219.305 C224.132,219.254 225.621,220.151 227.309,220.095 C232.573,222.088 238.136,223.574 243.151,225.811 C253.237,225.415 263.56,226.601 273.097,229.09 C279.901,229.682 286.759,231.223 293.611,230.928 C297.779,231.922 300.808,235.2 305.376,235.246 C314.02,235.793 321.968,238.476 330.509,239.219 C335.276,240.51 339.994,242.299 344.711,243.59 C349.425,242.449 354.148,241.254 358.866,241.057 C362.493,242.152 365.619,244.386 369.841,244.137 C373.165,243.84 376.395,244.731 379.822,245.128 L380.323,244.833 C386.082,247.863 389.208,240.906 394.421,240.56 C397.351,241.608 398.393,244.927 398.744,247.812 C399.34,253.722 394.772,260.429 398.744,265.987 C399.586,268.918 400.381,272.098 399.039,275.074 C398.994,279.296 399.189,283.82 396.16,287.045 C395.318,286.699 395.664,285.256 395.865,284.564 C395.964,283.764 395.069,283.418 394.772,282.625 C391.292,278.65 389.157,273.437 384.64,270.356 C381.26,268.767 376.297,270.209 374.507,265.687 C372.922,263.654 372.969,260.579 370.135,259.531 C366.759,257.745 361.892,258.391 358.866,260.579 C351.268,261.667 344.512,257.198 337.114,256.451 C332.397,255.211 327.924,253.276 322.809,252.88 C314.267,253.422 307.859,248.106 299.716,247.367 C294.848,246.62 288.987,247.863 284.522,245.527 C275.085,240.56 264.061,238.822 253.237,241.458 C248.364,243.29 243.646,240.41 238.833,239.915 C234.711,238.578 229.843,240.264 226.071,237.681 C223.982,236.191 221.949,234.504 220.357,232.466 C220.555,231.97 220.06,231.426 219.76,231.426 C215.338,230.528 210.275,232.466 206.152,230.628 C200.588,228.688 194.979,228.744 189.619,226.36 C188.622,226.511 187.676,226.01 186.734,226.36 L186.535,226.106 C186.434,226.211 186.434,226.36 186.434,226.457 C182.563,226.556 178.59,227.448 174.57,227.247 L166.126,230.433 C162.003,230.433 157.385,229.838 153.464,228.595 C152.121,229.136 150.832,230.183 149.536,231.129 C150.832,232.517 150.135,234.504 150.182,236.242 C150.182,239.669 151.224,243.786 148.943,246.769 C144.273,251.043 137.023,249.05 132.502,253.622 C131.46,254.267 131.16,256.451 129.525,255.361 C129.174,255.063 128.828,254.568 128.828,254.018 C129.773,248.26 129.08,241.458 132.208,236.537 C136.326,231.768 142.039,230.231 147.802,229.586 C148.845,229.192 149.639,228.295 150.584,227.649 L148.247,225.905 C143.629,225.658 139.257,229.09 134.741,226.952 C130.268,226.211 126.692,228.49 122.475,228.49 C119.394,228.048 117.109,225.265 113.78,225.61 C106.926,227.298 98.732,229.435 91.435,226.556 C89.344,225.761 87.064,225.415 85.325,223.872 C81.548,221.937 77.976,219.655 74.349,217.365 C73.9,219.01 71.52,217.917 70.277,218.659 C66.701,219.61 62.479,222.088 58.852,219.8 C55.276,217.767 54.981,213.494 51.901,211.11 C49.77,209.918 47.334,208.777 44.749,209.272 C44.454,208.922 43.804,208.525 43.907,207.931 C49.269,204.805 54.187,199.736 61.189,201.528 C64.963,202.369 68.636,203.417 71.717,205.996" fill="#332D2B" id="path838"/>
      <path d="M70.576,207.438 C71.768,209.128 72.213,211.159 72.712,213.149 C69.833,211.507 67.047,209.619 64.565,207.04 C61.984,206.147 59.151,206.988 57.216,208.979 C57.067,209.568 57.711,209.823 57.81,210.315 C59.75,210.213 61.484,207.685 63.723,208.778 L68.043,212.354 L72.512,214.987 C72.909,217.417 70.18,216.179 69.038,216.926 C65.86,217.618 61.984,220.498 58.852,217.666 C55.972,215.282 56.123,211.009 52.299,209.474 C50.91,208.876 49.62,208.036 48.129,207.633 C51.204,205.652 54.187,202.817 58.207,202.967 C62.83,203.313 67.099,204.661 70.576,207.438" fill="#CCC89F" id="path840"/>
      <path d="M145.863,213.047 C152.865,213.69 160.466,211.807 166.025,215.833 C167.367,217.02 168.859,215.627 170.297,215.533 C179.287,213.746 187.581,214.59 197.162,214.986 C202.132,215.338 205.957,218.758 210.425,220.001 C212.959,220.947 215.788,221.097 218.418,221.839 C224.874,219.655 230.934,224.223 237.341,225.52 C238.237,225.959 238.933,227.004 239.279,227.994 C240.717,230.679 241.317,233.754 243.35,236.242 C243.746,236.087 244.097,236.634 244.344,236.041 C244.493,235.546 244.593,234.901 244.241,234.306 C242.956,232.021 242.008,229.537 240.917,227.153 C242.11,227.153 242.806,228.689 244.143,227.994 C244.939,230.328 245.836,232.811 247.518,234.699 C248.266,235 248.319,234.156 248.566,233.811 C248.07,231.721 246.677,230.033 246.181,227.994 L249.165,227.848 C250.103,229.787 249.953,232.12 251.4,233.811 C252.142,234.054 252.19,233.358 252.442,232.961 C252.391,231.129 251.695,229.537 251.198,227.848 C252.291,228.099 253.087,227.848 254.375,227.994 C254.821,229.932 255.417,231.82 256.61,233.513 C257.456,234.054 257.255,232.961 257.655,232.661 C257.504,231.129 256.709,229.838 256.513,228.295 C263.465,228.397 269.026,231.174 276.127,231.426 C282.285,231.37 287.696,234.009 293.807,233.063 C297.137,234.601 300.212,236.69 304.034,237.084 C308.952,237.43 313.279,238.228 317.943,239.219 C319.135,242.843 321.219,246.124 323.257,249.451 C323.858,249.897 324.497,249.551 324.648,248.809 C324.353,246.17 321.915,243.936 320.873,241.357 L320.177,239.814 C321.273,239.814 322.711,240.215 323.951,240.41 C325.245,242.944 326.237,245.629 327.824,248.008 C328.47,248.107 328.719,247.367 328.971,246.971 L328.971,246.076 L326.386,240.96 L328.224,241.155 L332.247,248.008 C332.692,248.209 333.538,248.761 333.635,247.813 C334.13,247.416 333.584,246.92 333.734,246.572 L330.905,241.552 C335.277,242.698 339.944,244.137 344.066,245.873 C344.711,246.17 345.408,245.975 345.901,245.975 C345.805,247.367 346.996,247.957 347.642,249.004 L350.723,254.515 C350.969,254.809 351.269,254.913 351.614,254.865 C353.257,253.322 351.269,251.836 350.82,250.341 C349.726,248.658 348.834,246.671 347.342,245.329 C348.384,244.782 349.627,244.782 350.82,244.536 C351.465,247.068 353.648,248.855 354.69,251.289 C355.49,251.779 355.882,251.238 356.134,250.547 C355.933,248.107 353.947,246.419 352.656,244.432 L352.357,244.137 C353.053,244.137 353.798,243.69 354.594,243.69 C354.395,245.527 356.482,246.371 357.029,248.008 C357.869,249.004 357.971,250.692 359.212,251.137 C361.146,248.658 358.121,246.572 357.275,244.432 L356.428,243.491 C360.554,242.497 363.434,246.419 367.256,246.076 C371.879,246.124 376.396,246.516 380.564,247.713 C382.407,247.312 384.89,248.107 386.674,246.971 C389.359,245.479 391.292,243.245 394.523,242.993 C399.391,247.957 394.922,255.064 394.968,260.673 C395.217,264.351 397.352,267.329 397.697,271.002 C397.502,273.14 396.01,275.23 397.006,277.509 C396.31,278.749 397.156,280.241 396.61,281.485 C392.388,276.818 390.004,269.61 383.399,267.627 C384.641,264.646 385.581,260.919 385.782,257.4 C385.386,256.952 384.641,256.258 384.244,257.1 C383.299,260.475 383.053,264.099 381.164,267.08 C380.219,267.375 379.131,267.08 378.284,266.579 C379.972,262.607 379.772,257.745 380.023,253.322 C379.873,252.725 379.626,252.28 379.027,252.079 C378.435,252.328 378.083,252.725 378.083,253.422 C377.934,257.148 378.234,261.57 376.643,264.945 C375.75,263.85 375.155,262.508 374.805,261.271 C375.3,257.745 375.105,253.722 372.87,250.939 C372.274,250.842 371.879,251.137 371.778,251.689 C371.628,252.826 372.369,253.622 372.571,254.613 C372.922,255.961 373.117,257.4 373.165,258.736 C368.448,255.259 361.745,256.052 356.729,258.436 C349.53,258.489 343.471,254.865 336.619,254.019 L324.849,250.644 C315.408,252.034 308.361,245.578 299.416,245.128 L295.743,244.833 C297.182,242.795 295.696,240.609 295.449,238.375 C295.05,237.93 294.654,237.579 294.008,237.681 C292.966,238.627 294.252,239.915 294.107,241.155 C294.699,242.449 294.107,244.04 295.449,244.833 L290.627,244.732 C291.723,242.197 290.081,239.567 289.09,237.284 C288.643,237.035 288.342,236.339 287.696,236.537 C286.258,237.981 288.492,239.363 288.594,240.96 C289.288,242.299 288.94,243.245 289.539,244.627 C287.75,244.432 286.063,243.84 284.621,243.193 C284.87,240.711 283.529,238.627 282.682,236.438 C282.136,236.087 281.64,235.345 280.944,235.643 C280.003,236.138 280.944,236.934 280.944,237.579 C281.841,239.018 282.532,240.51 282.682,242.299 C274.638,238.87 264.357,236.783 255.07,238.921 C247.673,241.656 239.777,236.99 232.126,236.99 C228.652,236.99 225.721,235.345 223.537,232.763 C226.664,234.306 230.24,234.45 233.615,234.601 C233.961,234.054 233.915,233.358 233.321,232.763 C230.54,232.021 227.31,231.871 224.725,230.829 C221.4,229.039 217.328,229.24 213.5,229.09 C212.855,227.153 211.917,225.265 211.567,223.181 C211.272,222.686 210.725,222.629 210.326,222.686 C209.284,223.526 210.176,224.968 210.326,226.01 L211.662,229.193 C206.999,230.829 207.846,224.868 205.558,222.881 C205.312,222.434 204.666,222.235 204.216,222.34 L203.82,223.181 L206.354,228.397 C201.585,227.108 195.775,226.857 190.857,224.418 C188.719,223.928 186.434,224.418 184.401,224.418 C184.205,222.283 182.909,220.395 182.167,218.361 C181.867,217.917 181.326,218.161 180.924,217.963 C180.53,218.361 180.179,219.01 180.629,219.506 L182.863,224.619 C181.62,224.868 180.329,224.968 178.987,224.919 C179.237,224.568 179.092,223.728 178.987,223.376 C178.441,221.392 177.3,219.704 176.011,218.068 C175.762,217.866 175.315,217.963 175.014,217.963 L174.57,218.659 C175.66,220.746 177,222.731 178.044,224.818 C176.407,224.919 175.113,224.968 173.573,225.314 C173.723,223.28 171.886,221.539 170.597,219.9 C170.198,219.655 169.702,219.455 169.255,219.704 C168.955,219.852 168.955,220.199 168.955,220.497 C170.051,222.139 171.789,223.728 172.231,225.715 C168.709,226.808 164.934,229.586 160.363,228.099 C157.485,227.65 154.703,226.952 152.122,225.905 C155.399,225.163 159.126,225.065 162.65,226.01 C163.145,226.107 163.295,225.565 163.346,225.214 C163.243,224.619 162.499,224.322 162.004,223.977 C157.583,221.742 152.52,224.418 147.952,223.677 L147.601,223.977 C144.624,224.172 141.694,225.163 138.514,225.415 C133.597,224.472 128.534,225.364 123.714,226.256 C119.591,226.01 116.862,221.984 112.191,223.776 C102.313,227.7 90.491,225.812 82.147,219.9 L79.763,218.458 C85.523,219.704 91.832,222.139 98.087,220.301 C98.985,221.097 99.031,222.34 100.126,222.881 C100.322,222.385 100.672,222.731 100.92,222.881 C101.168,221.638 100.173,220.695 99.48,219.8 C100.425,219.506 101.416,219.059 102.36,219.208 C104.446,220.001 103.206,223.481 105.735,222.779 C105.585,221.191 104.941,219.704 103.899,218.563 L105.838,218.068 C107.774,218.959 107.376,222.088 109.61,221.638 C109.709,220.151 108.718,218.707 107.676,217.665 C110.405,216.869 113.533,215.879 116.366,215.729 C123.368,216.374 129.426,219.9 136.873,218.86 C137.472,218.458 137.023,217.716 136.873,217.266 L136.677,217.02 L132.007,216.72 C135.733,214.986 139.706,213.746 143.927,213.047 C144.521,213.449 145.166,212.849 145.863,213.047" fill="#D39376" id="path842"/>
      <path d="M148.644,217.365 C149.386,219.154 150.135,220.992 149.985,223.18 C149.836,223.526 149.489,223.331 149.237,223.376 C148.297,222.881 148.545,221.539 148.247,220.595 C147.751,218.908 146.708,217.365 146.409,215.728 C147.452,214.336 148.247,216.569 148.644,217.365" fill="#332D2B" id="path844"/>
      <path d="M154.057,219.8 L154.057,223.082 C152.121,223.082 152.716,220.25 152.121,219.208 C151.973,218.412 151.126,217.816 151.275,217.02 C151.524,216.374 152.018,216.674 152.519,216.72 C153.21,217.567 153.659,218.707 154.057,219.8" fill="#332D2B" id="path846"/>
      <path d="M143.133,216.824 C144.226,218.86 145.517,220.895 145.564,223.376 C145.564,223.727 144.969,223.775 144.671,223.48 C144.175,221.442 142.685,219.655 142.09,217.566 C141.992,216.869 142.586,216.775 143.133,216.824" fill="#332D2B" id="path848"/>
      <path d="M190.412,221.539 C190.31,222.235 190.757,223.125 190.016,223.574 L189.619,223.48 C188.673,221.839 188.178,220.001 187.13,218.458 C187.085,217.566 188.076,217.52 188.673,217.866 z" fill="#332D2B" id="path850"/>
      <path d="M217.376,225.905 C217.722,226.856 218.469,228.098 217.722,228.985 C216.04,228.144 215.488,225.959 215.043,224.172 C215.043,223.28 216.185,223.376 216.686,223.676 C217.227,224.271 216.881,225.313 217.376,225.905" fill="#332D2B" id="path852"/>
      <path d="M144.768,232.165 C142.585,233.357 142.188,235.896 139.953,236.634 C138.018,237.729 136.578,239.768 135.783,241.656 C135.485,242.843 136.129,243.986 137.073,244.731 C137.621,244.731 138.117,244.731 138.415,244.335 C137.672,243.339 138.018,242.197 138.513,241.254 C140.15,238.227 144.123,237.43 145.765,234.104 L148.247,232.763 C147.653,235.747 148.442,238.326 148.344,241.356 C148.943,241.951 148.049,242.398 148.148,242.993 C147.998,245.38 145.517,246.269 143.726,247.166 C139.406,248.059 135.087,248.899 131.46,251.389 C131.661,245.779 131.608,238.921 136.976,235.345 C139.256,233.513 141.94,232.615 144.768,232.165" fill="#CCC89F" id="path854"/>
    </g>
    <g id="g898">
      <path d="M19.885,7.05 C20.431,9.388 21.52,11.521 21.52,14.1 L41.785,27.955 L65.477,43.106 C74.565,49.262 84.147,55.126 93.581,60.987 L112.752,72.404 L125.116,79.556 L152.931,96.641 L177.562,112.036 L190.423,120.327 C187.64,113.726 183.423,107.67 180.193,101.109 C178.553,97.932 175.773,94.507 177.016,90.93 C179.55,86.363 184.709,88.942 188.585,87.951 C198.221,84.075 206.07,76.133 217.585,77.523 C222.603,79.358 227.768,80.799 233.43,80.21 L236.706,79.162 C249.921,72.206 264.274,64.606 280.312,67.842 C287.217,69.425 294.812,70.812 299.235,77.228 C300.33,78.466 299.73,80.108 299.132,81.396 C294.019,88.398 285.281,89.69 279.321,95.404 C275.444,98.824 272.618,102.797 272.468,107.967 C272.814,108.81 273.556,108.315 274.105,108.165 C287.563,98.974 302.063,90.981 319.644,92.966 C320.19,93.317 321.085,93.317 320.986,94.158 C319.097,96.001 316.467,97.488 314.83,99.671 C316.764,99.422 318.902,99.025 320.986,98.881 C325.703,98.478 331.168,98.581 335.982,99.572 C336.381,99.918 337.027,100.118 337.227,100.614 C336.281,102.05 334.444,103.298 333.252,104.685 C338.218,104.883 343.584,105.631 348.247,106.92 C348.697,107.27 348.745,107.67 348.947,108.165 C347.902,109.558 346.71,110.198 345.37,111.441 L346.117,111.838 C349.689,112.783 353.415,113.228 356.841,114.616 C358.084,116.311 355.649,117 354.906,118.392 L362.951,120.822 C363.297,121.123 363.648,121.524 363.798,122.068 C363.002,123.908 361.459,125.148 360.417,126.887 C362.255,127.883 364.738,127.779 366.624,128.921 C367.173,130.659 365.086,131.95 364.39,133.388 C365.536,134.24 367.615,133.734 368.813,135.031 C368.71,137.415 368.065,139.748 366.326,141.588 C367.321,142.477 369.107,141.883 369.804,143.029 C368.71,147.048 366.031,150.273 363.497,153.653 C361.909,157.725 362.203,162.597 364.789,166.12 C367.57,169.645 371.641,170.832 374.917,173.567 C381.178,177.443 387.138,182.507 391.756,188.568 C397.564,199.095 401.191,211.656 398.11,224.322 C396.572,231.525 393.789,239.173 387.282,243.74 C378.097,251.295 365.732,253.027 353.766,252.034 C349.839,250.994 345.668,250.547 342.241,248.358 C338.516,245.73 334.94,242.749 331.714,239.669 C326.249,232.521 326.745,220.847 330.471,213.103 C334.795,204.509 343.929,197.408 353.364,197.156 C362.801,195.919 372.683,199.742 378.097,207.689 C382.415,213.047 382.469,220.601 380.031,226.901 C376.409,235.302 368.365,241.551 358.879,241.707 C352.868,241.707 347.109,240.17 343.434,235.05 C340.9,229.939 339.362,222.881 343.683,218.112 C347.109,213.349 352.32,210.17 358.483,211.461 C361.954,211.962 365.536,214.041 367.173,217.371 C368.312,219.704 368.115,223.082 366.972,225.466 C365.134,227.898 362.255,229.687 359.276,228.94 C358.73,228.645 358.679,228 358.879,227.499 C360.021,226.658 361.408,225.415 361.558,223.927 C361.213,221.292 358.234,221.198 356.445,220.652 C354.156,220.351 352.821,222.639 351.826,224.222 C351.427,225.61 350.781,227.351 351.628,228.744 C354.112,231.771 358.333,232.32 361.856,231.37 C366.423,230.78 369.557,226.306 370.65,222.189 C371.446,220.054 371.446,217.322 370.202,215.338 C367.219,209.722 360.963,206.398 354.808,207.29 C346.91,208.53 341.098,215.929 338.218,222.881 C337.924,224.322 337.128,225.865 337.723,227.303 C337.669,227.258 337.623,227.153 337.522,227.207 C336.879,228.691 338.269,229.787 337.924,231.174 C338.567,235.596 342.638,239.62 346.809,241.056 C352.175,243.196 358.084,243.74 363.993,243.941 C372.638,243.094 381.223,237.185 384.507,228.841 C387.582,221.244 385.844,212.653 381.673,206.152 C379.289,202.771 375.914,198.946 371.837,197.853 C363.894,196.217 355.898,194.823 349.79,188.668 C345.864,188.868 341.794,188.217 338.465,186.433 C331.213,188.418 324.067,191.202 316.172,191.943 L315.872,192.244 C316.467,202.126 316.713,212.008 317.409,221.592 C322.028,224.471 325.655,229.586 324.958,235.347 C324.114,242.254 318.155,246.769 312.693,250.697 C309.612,252.631 305.789,253.972 301.964,252.931 C299.979,252.285 297.145,250.842 296.949,248.358 C297.495,245.433 299.435,243.001 299.132,239.869 C298.492,237.035 296.304,234.059 293.274,233.408 C288.455,233.614 283.341,237.485 278.774,234.059 C277.186,233.111 276.339,231.474 276.039,229.838 C275.843,228.098 277.281,226.658 278.774,225.865 C279.771,225.12 281.157,225.313 282.35,225.168 C282.35,224.574 281.354,224.723 280.908,224.322 C277.633,224.127 274.652,226.658 271.225,225.168 C269.484,224.172 266.754,223.628 266.408,221.142 C268.196,216.674 272.618,220.151 275.744,217.371 C278.474,216.925 281.704,217.871 284.383,216.974 C285.328,216.674 286.572,216.475 286.668,215.232 C286.322,207.93 285.23,199.841 282.449,193.186 C276.39,191.202 270.084,189.758 264.174,187.325 C263.923,188.121 264.174,188.868 264.37,189.71 C265.016,194.177 265.712,199.246 265.412,204.008 C265.265,210.866 261.739,216.328 258.959,222.088 C258.761,224.078 260.794,225.12 261.538,226.658 C263.427,230.183 265.316,234.8 263.379,238.728 C262.337,241.908 258.86,243.545 256.13,244.983 C250.365,247.067 242.918,249.649 237.304,245.675 C237.058,245.329 236.808,244.983 236.608,244.637 C237.65,240.812 243.61,239.669 242.522,235.05 C242.123,233.714 240.184,233.759 239.142,234.259 C235.664,235.549 232.44,238.326 228.314,237.185 C226.53,236.489 223.897,235.447 223.696,233.213 C225.188,230.829 228.166,230.78 230.152,229.042 C231.793,226.106 235.12,226.51 237.505,225.168 C239.739,224.127 242.417,223.976 244.255,222.189 C247.636,218.367 247.735,213.148 249.273,208.576 C250.561,201.63 248.578,195.021 245.798,189.313 C239.688,190.802 235.766,197.007 229.956,199.2 C225.338,200.537 219.177,199.592 214.811,200.042 C210.838,200.687 205.373,199.79 203.385,204.408 C200.506,209.924 198.422,219.109 190.323,218.908 C183.672,218.169 178.949,212.353 175.724,206.838 C175.92,203.958 179.601,204.465 181.138,202.275 C183.868,199 182.775,193.976 186.006,190.802 C186.799,190.304 187.693,189.811 188.585,189.905 L189.183,189.508 C198.518,187.671 208.799,187.521 218.531,187.226 C222.359,185.932 225.383,182.31 228.515,179.677 C230.848,177.392 233.482,175.654 236.061,173.967 C235.271,173.47 234.373,171.927 233.532,172.72 C232.887,173.372 232.091,174.414 231.097,174.168 L224.738,170.189 C223.546,170.832 223.399,172.777 221.662,172.525 C219.474,170.888 217.239,168.898 215.057,167.412 C214.759,168.402 214.264,169.345 213.319,169.991 C212.375,170.189 212.075,169.244 211.481,168.949 C206.217,165.477 201.151,161.007 195.242,158.967 C188.735,157.478 182.925,153.808 178.058,149.134 C176.716,147.888 176.37,145.955 176.319,144.417 C176.716,143.72 177.067,142.975 178.058,143.029 C184.018,144.918 190.675,143.029 196.533,141.883 C195.689,141.088 194.696,139.804 193.503,139.448 C186.252,132.351 178.358,126.938 170.509,120.627 C150.743,106.277 129.936,93.215 109.522,80.995 C109.326,80.402 108.928,80.799 108.583,80.402 L89.262,68.439 L70.989,57.014 L40.345,38.689 C31.852,34.365 23.559,29.546 15.116,25.03 C10.148,25.477 5.781,22.691 2.453,19.07 C-0.329,16.139 -0.38,11.322 0.517,7.645 C2.551,3.528 6.675,0.648 11.045,0.002 C14.92,-0.102 18.047,3.774 19.885,7.05" fill="#332D2B" id="path858"/>
      <path d="M18.047,9.689 C18.543,11.122 19.239,12.515 19.089,14.203 C18.646,14.998 17.897,16.091 17.748,17.232 C18.094,17.827 18.888,17.682 19.389,17.532 C19.932,17.382 20.679,17.13 21.324,16.932 L21.969,17.037 L39.401,29.102 L59.115,41.663 L79.183,54.73 L89.808,61.381 L112.056,74.644 L120.849,79.658 L150.991,98.179 C163.705,106.379 176.616,113.971 189.281,122.47 L193.503,126.041 L194.002,126.041 C195.392,128.62 197.971,130.565 199.014,133.193 C200.752,135.772 201.398,139.103 204.529,140.747 L199.509,141.288 C198.221,139.004 195.737,137.564 193.704,136.175 C184.663,128.872 175.574,120.979 165.992,114.522 L146.274,101.109 L136.588,94.804 L114.939,81.496 C106.942,76.878 99.097,71.759 91.201,66.897 L67.413,51.997 C55.641,45.439 44.865,37.642 32.697,32.081 C27.433,29.153 22.17,26.022 17.052,22.991 C14.27,21.949 11.24,23.388 8.856,21.355 C6.08,19.169 2.751,17.382 2.453,13.56 C2.004,9.089 4.191,5.116 8.062,3.032 C8.959,2.282 10.399,2.132 11.54,2.537 C14.523,3.774 16.907,6.804 18.047,9.689" fill="#EA6DA4" id="path860"/>
      <path d="M294.315,74.989 C295.507,76.031 296.798,77.228 297.299,78.76 C296.7,81.594 293.474,83.379 291.339,85.072 C282.595,90.086 269.783,96.047 269.783,108.165 C270.528,109.352 271.868,109.502 272.864,110.295 L274.8,109.904 C287.463,101.509 300.825,93.812 317.012,94.803 C314.875,96.791 312.394,99.076 310.757,101.658 C310.707,102.355 310.757,102.752 311.149,103.247 C312.74,103.743 313.637,102.05 315.076,101.956 C321.435,100.268 326.894,100.319 333.65,101.109 C332.359,102.797 330.419,104.088 328.933,105.631 C328.732,106.177 328.783,107.118 329.474,107.27 C330.867,107.619 332.21,106.628 333.747,106.724 C337.824,106.574 341.794,107.324 345.617,108.165 C344.475,109.703 342.49,110.499 341.199,111.642 C340.853,114.672 344.424,112.783 346.117,113.579 L354.06,115.513 C353.765,117 349.642,117.897 352.319,119.74 C355.201,120.431 358.131,121.077 360.918,122.068 C360.566,123.708 358.78,124.999 358.084,126.542 C357.783,127.68 358.828,128.275 359.57,128.724 L364.091,129.917 C363.543,131.355 362.353,132.296 361.408,133.388 C361.113,133.885 361.609,134.286 361.66,134.736 C362.9,135.923 364.935,135.577 366.527,136.072 C366.572,137.913 365.133,139.504 363.893,140.841 C363.543,141.636 364.488,141.838 364.389,142.579 C365.236,143.224 366.278,143.375 367.269,143.72 C366.923,147.543 362.305,149.831 361.113,153.407 C359.72,159.217 360.813,166.069 366.13,169.991 C376.012,176.942 388.876,183.599 393.097,195.919 C399.403,207.885 397.86,225.168 391.158,236.588 C387.582,241.707 381.868,245.232 376.46,247.616 C367.764,251.043 355.003,251.688 346.013,248.209 C341.148,245.675 337.323,242.203 333.055,238.527 C327.837,231.029 328.732,219.805 333.055,212.158 C336.035,207.239 340.602,203.218 345.617,200.732 C350.286,198.745 355.949,198.049 361.308,199 C369.106,200.191 376.208,205.996 378.988,213.5 C381.373,221.943 377.003,229.939 370.944,235.251 C365.335,239.915 356.098,241.212 349.493,237.731 C343.878,235.251 342.836,229.192 343.133,223.826 C343.584,220.898 346.066,218.959 347.85,216.674 C350.982,213.449 355.549,212.252 359.92,213.598 C362.203,214.341 364.884,216.28 365.536,218.808 C366.031,221.142 365.779,224.322 363.395,225.865 C363.842,224.273 363.1,222.385 362.058,221.142 C359.224,219.506 355.102,217.371 352.027,219.851 C349.889,222.441 348.099,226.211 349.889,229.641 C352.174,232.372 355.201,234.009 358.878,233.81 C363.002,233.614 366.822,232.717 369.704,229.441 C372.136,225.564 373.974,221.096 372.883,216.178 C370.845,212.307 367.718,208.627 363.596,206.942 C357.783,204.062 350.339,204.954 345.37,209.326 C340.899,212.055 338.965,216.926 336.627,221.049 C334.494,226.561 334.99,232.913 338.566,237.635 C345.075,244.536 354.26,245.824 363.596,245.974 C369.307,245.73 374.421,243.394 378.988,240.065 C384.253,235.302 387.879,229.387 387.978,222.189 L388.179,221.988 C388.825,216.58 386.192,211.461 384.207,206.642 C381.471,202.321 377.4,197.751 372.586,196.217 C364.59,194.427 355.399,193.682 349.79,186.232 C349.244,186.034 348.3,185.686 347.95,186.128 L348.15,187.025 C345.718,187.226 343.232,186.433 340.998,185.737 C343.133,184.89 345.121,183.157 347.258,182.01 C347.258,181.365 346.959,180.369 346.117,180.417 C344.526,180.275 343.382,181.81 342.041,182.557 C336.23,185.041 330.17,186.83 324.165,188.668 L314.232,190.4 L313.734,191.748 C314.082,201.528 314.58,212.008 315.274,222.088 C315.625,223.628 317.508,224.033 318.649,225.069 C321.681,228.249 324.015,232.521 322.327,236.887 C320.784,242.352 315.475,245.779 311.149,249.256 C308.719,250.842 305.443,251.934 302.609,250.994 C301.417,250.397 299.93,249.85 299.434,248.658 C299.678,245.629 301.767,243.343 301.467,240.065 C301.122,236.54 298.291,233.459 295.211,231.67 C291.189,230.88 287.659,233.164 283.691,233.512 C281.502,233.714 279.614,232.521 278.473,230.78 C277.977,230.033 278.524,229.192 278.773,228.49 C281.007,226.406 284.634,227.153 287.463,226.261 C291.535,224.322 296.949,224.673 299.632,220.451 C300.029,220.001 299.483,219.063 300.23,218.808 C300.23,217.467 299.879,216.926 299.434,215.728 C296.654,205.753 297.84,193.881 293.82,184.296 C292.531,181.717 291.087,177.789 293.273,175.209 C299.729,169.796 307.923,168.552 315.67,166.219 C321.877,164.532 328.386,163.934 335.088,163.934 C335.786,163.934 336.23,163.335 335.786,162.643 C333.747,161.352 330.57,162.046 328.036,161.998 C318.054,162.793 308.77,165.766 299.632,168.852 C295.856,170.832 289.801,172.625 289.697,177.939 C290.493,183.052 292.976,187.427 293.919,192.439 C288.955,191.842 284.238,191.692 279.716,190.205 C274.201,188.617 268.441,187.325 263.577,184.689 L263.577,184.4 C265.165,183.398 268.545,185.737 268.591,182.758 C267.699,180.87 267.399,178.536 267.153,176.297 C267.946,176.552 268.84,177.143 269.684,176.597 C270.084,176.152 270.924,175.705 270.33,175.009 C269.882,173.621 270.924,171.087 268.988,170.486 C268.642,170.636 267.594,170.141 267.549,170.888 C267.648,172.129 267.849,173.217 267.745,174.263 C266.753,174.068 265.862,173.217 264.664,173.667 L264.468,174.76 L265.613,182.01 C264.319,182.01 262.186,181.96 260.892,182.857 C260.397,184.094 260.892,185.637 261.439,186.83 C262.586,194.277 264.072,202.87 261.739,210.119 L261.84,210.218 C260.496,213.795 258.508,217.571 256.626,221.142 C255.379,223.676 258.213,225.369 259.154,227.303 C261.139,230.78 262.832,235.447 260.496,239.368 C256.376,243.89 250.464,245.232 244.755,246.076 C242.768,245.974 240.834,245.73 239.341,244.338 L239.341,243.641 C242.17,241.16 245.648,238.578 245.055,234.456 C244.158,233.017 242.717,231.726 240.783,232.071 C235.714,232.026 230.802,238.873 226.379,233.714 C226.277,232.867 227.271,232.913 227.721,232.521 C229.856,231.474 232.09,230.183 234.027,228.396 C237.057,227.351 239.988,226.01 243.114,225.264 C249.968,221.688 249.127,213.746 251.407,207.689 C252.848,197.807 248.382,189.559 243.96,181.717 C242.221,177.097 241.871,171.927 241.081,166.916 C240.435,166.219 239.636,165.823 238.645,166.018 C237.949,168.402 238.496,171.282 239.141,173.667 C237.402,172.72 235.961,170.936 234.423,170.095 C233.429,170.24 232.784,171.282 231.994,171.834 C229.304,170.832 227.472,168.505 224.841,167.412 C223.449,167.412 223.248,169 222.407,169.796 L215.356,164.28 C214.56,164.232 213.864,164.577 213.513,165.279 C213.221,165.766 213.267,166.814 212.672,166.814 C207.306,163.335 202.64,158.872 196.629,156.884 C191.07,155.537 186.252,153.008 181.633,149.335 C180.441,148.24 179.249,147.002 178.853,145.357 C188.884,147.246 197.325,142.534 206.862,142.279 C208.798,144.318 211.579,142.88 213.714,142.279 C215.207,142.279 217.239,142.429 218.531,141.387 C219.773,140.15 220.32,138.408 220.023,136.769 C219.722,136.268 218.927,136.222 218.531,136.568 C217.689,137.615 218.134,139.252 216.993,140.045 C213.612,139.298 210.587,142.88 207.807,140.15 C203.685,138.011 202.193,133.688 199.91,130.013 C192.011,120.236 187.243,109.007 181.036,98.581 C179.745,96.542 178.303,93.912 179.496,91.527 C182.231,87.605 186.551,91.868 189.776,89.494 C198.472,86.213 205.769,79.406 215.651,79.358 C220.867,80.303 225.533,82.988 231.394,82.237 L231.793,82.438 C235.27,82.342 238.15,80.751 241.081,79.457 C253.094,72.758 266.657,66.99 281.256,70.076 C285.925,70.869 290.244,72.656 294.315,74.989" fill="#CDDA01" id="path862"/>
      <path d="M276.039,71.169 C276.39,72.059 277.53,71.263 277.482,72.311 C276.585,74.094 274.006,72.806 272.468,73.053 C264.814,73.599 257.518,75.982 251.407,79.061 C250.365,79.612 249.569,80.799 248.432,81.1 C248.08,80.7 247.831,80.004 248.227,79.557 C253.446,75.487 259.602,73.302 265.81,72.01 C269.191,71.413 272.317,71.014 276.039,71.169" fill="#00A04A" id="path864"/>
      <path d="M284.284,73.25 L284.93,73.347 C285.229,73.749 284.833,74.143 284.635,74.442 C283.788,74.989 282.395,74.544 281.452,74.244 C281.157,73.848 280.908,73.25 281.157,72.701 C281.999,72.46 283.64,72.311 284.284,73.25" fill="#00A04A" id="path866"/>
      <path d="M249.569,89.886 C256.079,95.6 260.592,103.199 259.355,112.036 L265.315,112.138 C265.759,112.439 265.961,113.084 265.712,113.579 L265.12,114.326 L259.054,114.42 L257.863,118.093 C259.505,119.141 261.739,119.29 263.477,120.327 C263.328,121.024 263.426,121.423 262.931,121.969 L262.435,122.17 L256.92,120.327 L255.088,123.413 C256.475,124.6 258.458,125.245 260.202,126.143 C260.547,126.836 259.901,127.389 259.701,127.975 C257.563,127.48 255.584,126.143 253.446,125.444 C248.281,130.014 241.72,132.296 234.228,131.356 C226.478,131.005 220.074,126.836 214.21,121.669 C212.471,119.636 211.429,117.051 210.738,114.823 C208.303,107.271 210.588,98.283 215.951,92.42 C224.191,83.484 240.132,82.734 249.569,89.886" fill="#332D2B" id="path868"/>
      <path d="M252.553,96.095 C258.408,103.052 258.61,113.229 254.286,120.823 C250.365,126.984 243.609,130.118 236.06,129.416 C228.863,129.467 223.103,125.992 217.785,121.669 C216.542,119.885 214.458,118.645 213.714,116.655 C210.536,110.054 211.924,101.658 216.245,95.9 C221.611,89.294 229.305,86.364 237.903,87.55 C243.564,88.549 249.172,91.131 252.553,96.095" fill="#FEFEFE" id="path870"/>
      <path d="M230.451,97.237 C231.742,102.406 230.551,107.371 228.313,111.838 C227.917,112.036 228.019,112.634 227.523,112.241 C226.926,111.937 226.43,111.643 226.179,111.046 C228.217,107.07 229.755,102.152 227.917,97.732 C227.271,96.837 226.131,96.891 225.238,96.941 C221.662,97.437 220.074,101.21 219.032,104.088 C218.185,104.536 217.291,103.845 217.09,103.052 C218.236,99.423 220.62,94.954 224.938,94.508 C227.271,94.258 229.208,95.405 230.451,97.237" fill="#332D2B" id="path872"/>
      <path d="M190.8,95.337 C190.864,96.063 190.254,96.427 189.777,96.505 C188.207,96.666 186.597,96.465 185.748,95.093 C185.606,94.487 186.396,94.608 186.734,94.364 C188.065,94.287 189.841,94.126 190.8,95.337" fill="#332D2B" id="path874"/>
      <path d="M310.257,118.393 C310.062,120.383 308.074,121.871 306.681,123.207 C306.387,123.207 306.089,123.555 305.738,123.312 C305.444,122.516 304.597,121.573 305.639,120.927 C306.831,120.328 308.074,119.29 308.224,117.898 C306.089,115.213 303.009,114.372 299.73,114.223 C299.435,113.727 299.235,113.229 299.132,112.68 L299.633,112.241 C303.905,112.484 308.771,114.027 310.257,118.393" fill="#00A04A" id="path876"/>
      <path d="M334.543,120.236 C333.597,122.314 331.363,123.708 329.381,124.104 C329.083,123.507 328.534,122.815 329.03,122.17 C330.275,121.623 331.414,120.822 332.405,119.831 C331.513,117.897 329.33,117.152 327.492,116.456 C326.549,116.059 324.907,116.21 324.861,114.717 C325.058,114.27 324.811,113.774 325.454,113.675 C328.829,115.063 333.897,115.859 334.543,120.236" fill="#00A04A" id="path878"/>
      <path d="M303.404,133.839 C303.155,136.223 301.372,137.812 299.434,139.103 C298.537,139.103 298.636,138.064 298.191,137.712 C298.387,136.619 299.829,136.521 300.33,135.526 C300.972,134.98 301.417,134.091 300.972,133.295 C299.383,131.605 297.249,130.761 295.111,130.118 C294.91,129.567 294.27,128.977 294.616,128.276 C296.504,127.93 298.14,129.221 299.829,129.917 C301.417,130.761 302.66,132.248 303.404,133.839" fill="#00A04A" id="path880"/>
      <path d="M326.099,136.568 C325.357,139.204 322.426,139.896 320.339,141.088 C319.597,141.237 319.597,140.447 319.246,140.045 L319.348,139.354 C320.835,138.357 322.921,138.111 323.814,136.373 C322.426,133.64 318.85,133.839 316.913,131.851 C316.812,131.506 316.367,130.76 317.109,130.659 C320.639,131.355 324.612,132.892 326.099,136.568" fill="#00A04A" id="path882"/>
      <path d="M347.355,144.768 C346.959,146.105 345.517,146.552 344.378,146.901 C342.886,146.657 341.049,147.946 340.404,146.057 C340.253,144.712 341.89,145.708 342.34,145.264 C343.433,145.015 344.875,145.114 345.37,143.823 C344.229,141.192 341.74,139.944 339.656,138.112 C339.557,137.662 339.115,137.016 339.757,136.77 C343.187,137.712 346.959,141.037 347.355,144.768" fill="#00A04A" id="path884"/>
      <path d="M293.474,149.976 C293.423,152.36 291.087,154.248 289.202,155.492 C288.309,155.59 288.505,154.548 287.958,154.15 C288.06,153.159 289.451,153.057 290.042,152.218 C290.643,151.468 291.685,150.48 291.138,149.432 C289.646,147.792 287.659,147.302 285.824,146.405 C285.971,145.759 285.129,145.559 285.424,144.865 L285.925,144.417 C288.703,145.655 292.381,146.657 293.474,149.976" fill="#00A04A" id="path886"/>
      <path d="M312.491,151.068 C311.349,153.209 308.966,154.45 306.882,154.846 C306.636,154.149 305.738,153.159 306.98,152.807 C308.173,152.359 309.662,151.765 310.16,150.479 C308.869,149.185 307.332,148.385 305.638,147.994 C305.54,147.396 305.044,146.807 305.242,146.156 C306.932,145.654 308.368,147.003 309.86,147.599 C311.053,148.44 312.245,149.63 312.491,151.068" fill="#00A04A" id="path888"/>
      <path d="M331.909,154.053 C331.714,155.098 330.771,155.693 329.975,156.287 C328.933,156.782 328.036,157.629 326.994,158.127 C326.849,157.977 326.498,158.071 326.3,158.026 C324.511,155.192 328.883,155.537 329.676,153.557 C328.237,151.62 326.003,150.873 323.814,150.377 C323.418,149.928 323.369,149.387 323.22,148.834 C323.715,147.744 325.012,148.736 325.903,148.736 C328.288,149.481 331.363,151.42 331.909,154.053" fill="#00A04A" id="path890"/>
      <path d="M241.479,182.258 L243.017,184.891 L243.314,184.69 C243.81,185.488 244.11,186.383 244.554,187.227 C238.249,188.914 234.327,195.367 228.313,197.553 C221.065,198.049 214.411,197.808 207.553,198.601 C203.286,199.541 200.31,203.669 199.313,207.69 C197.325,211.261 195.983,217.02 190.719,217.076 C185.405,216.626 180.837,211.41 178.553,206.643 C181.384,205.108 185.11,202.721 185.509,199 C186.152,196.265 186.351,192.987 189.182,191.547 C198.767,189.56 209.942,189.019 219.624,188.868 C225.634,186.878 229.304,181.17 234.672,177.545 L238,175.507 C241.179,176.297 240.288,180.024 241.479,182.258" fill="#CDDA01" id="path892"/>
      <path d="M293.82,194.376 L294.018,194.178 C294.91,202.472 295.706,210.915 298.09,218.809 C296.799,222.34 292.826,222.04 290.147,223.428 C288.208,223.826 286.52,224.724 284.382,224.724 C284.682,223.135 282.896,222.929 281.953,222.385 C277.53,221.198 272.417,225.865 269.191,221.143 C271.522,220.352 274.501,221.198 276.539,219.61 C277.977,218.809 280.265,219.506 281.752,219.409 C284.238,219.208 286.869,218.86 288.506,216.975 C289.898,213.551 288.455,209.822 288.208,206.342 C287.216,202.023 287.015,197.408 284.833,193.58 C287.763,194.03 290.94,194.427 293.82,194.376" fill="#CDDA01" id="path894"/>
      <path d="M189.927,195.919 C190.023,199.99 191.071,204.705 187.143,207.591 C187.143,208.482 187.99,209.273 188.786,209.522 C189.978,209.924 191.416,210.119 192.662,209.723 C196.134,207.143 196.184,202.973 197.776,199.495 C198.569,198.601 199.76,197.854 201.052,198.153 C201.247,198.499 201.448,198.349 201.646,198.699 C198.022,201.976 198.863,207.786 194.395,210.615 C191.912,212.008 188.486,211.71 186.206,210.119 C185.405,209.377 184.76,208.576 184.615,207.591 C185.11,205.801 186.996,205.107 187.444,203.267 C188.089,200.732 187.543,198.395 187.344,195.82 C188.188,195.223 189.131,195.619 189.927,195.919" fill="#332D2B" id="path896"/>
    </g>
  </g>
</svg>
