<?xml version="1.0" encoding="UTF-8" standalone="no"?>
<svg id="svg4159" xmlns:rdf="http://www.w3.org/1999/02/22-rdf-syntax-ns#" xmlns="http://www.w3.org/2000/svg" height="714.77mm" width="646.74mm" version="1.1" xmlns:cc="http://creativecommons.org/ns#" xmlns:dc="http://purl.org/dc/elements/1.1/" viewBox="0 0 2291.5889 2532.6347">
<g id="layer1" transform="translate(2400.1 1245.4)">
<g id="g4205" style="image-rendering:optimizeQuality;shape-rendering:geometricPrecision" fill-rule="evenodd" clip-rule="evenodd" transform="translate(-5692 -1339.2)">
<path id="path4202" d="m3606.9 93.785c-1.5831-0.0123-3.1517-0.01039-4.7051 0.0078-47.448 0.55154-81.069 15.24-103.16 42.961-22.134 27.776-23.671 67.145-22.135 117.03 1.0503 34.133 0.3221 73.192 8.1758 116.83 5.4263 30.153 17.39 65.598 24.537 100.44 14.993 73.094 37.752 113.16 76.371 180.34 2.2263 18.095 7.4562 34.726 10.283 51.279 16.85 98.659 41.177 171.53 72.219 227.82 32.672 59.251 66.421 105.14 99.307 146.33 28.21 35.331 56.679 66.138 73.217 111.06 9.5749 26.009 15.036 58.841 18.051 92.99 3.2457 36.763 2.9453 72.543 2.0058 111.22-0.5634 23.205 0.7898 48.316-3.4765 72.894-6.9943 40.296-23.136 80.127-36.385 119.92-8.4217 25.301-14.474 50.682-20.801 75.98-1.7406 6.9577-3.0658 7.5165-4.4921 8.5234-1.616 1.1406-3.6327 2.1045-11.348-0.3438-17.481-5.5471-35.157-12.791-54.773-16.732-69.44-11.648-135.86-22.624-205.3-34.272 19.895 32.184 69.497 50.189 109.38 69.703 39.49 19.325 98.648 52.423 88.191 78.137-63.304-2.9029-128.62 15.411-195.15 46.568-32.871 15.392-66.041 33.921-99.414 54.574-44.881 27.774-100.21 57.37-135.52 92.392 23.686-0.09 61.278-12.598 94.006-21.424 116.89-31.525 244.63-76.183 309.19-44.432-23.888 31.477-55.775 65.953-81.281 97.246-18.007 22.091-34.804 44.869-32.959 53.281 9.6971 3.5429 45.602-17.312 68.412-25.398 48.401-17.159 96.849-32.878 145.51-48.912 67.384-22.202 135.22-44.859 202.72-77.561 29.544-14.623 60.464-31.74 90.938-48.047 32.541-17.414 64.577-33.906 93.883-45.461 5.4263-2.1394 11.721-3.0615 15.986-5.8867 16.57-10.976 6.0992-15.57-9.8711-16.041-15.969-0.4708-37.442 3.176-46.904 0.6035-45.744-3.1794-81.049 6.6755-105.45 7.4961-16.157 0.544-27.723-4.7643-33.68-13.641-4.0297-6.0034-1.57-10.481-0.6797-13.881 2.2766-8.7006 14.756-13.222 33.682-39.217 19.217-26.394 37.647-77.13 57.291-163.83 51.618 31.214 80.544 86.884 133.73 110.61 42.899 19.133 89.925 30.736 144.05 28.779-45.52 44.138-97.695 87.531-139.95 134.42-39.691 44.047-77.088 88.333-105.68 138.02-16.439 28.561-25.674 58.019-25.191 87.025 0.1543 9.2571 2.2336 22.718 7.3925 33.705 6.6343 14.127 16.169 25.274 10.068 29.799-24.979 10.146-51.844 18.324-75.799 30.049-31.391 15.367-59.479 34.899-88.762 53.508-42.782 27.186-83.106 58.159-120.37 93.85 67.607-18.855 137.57-32.693 212.35-36.287-16.158 22.015-38.008 40.81-56.398 61.463-20.842 23.405-41.127 47.035-60.744 70.93-49.013 59.702-93.862 121.07-132.84 184.79 79.917-41.407 198.96-125.87 306.18-189.15 124.79-73.649 231.67-121.23 212.6-79.65-76.31 112.69-138.68 223.5-162.62 320.22 85.648-73.051 158.14-146.51 251.53-203.37 86.575-52.712 182.25-81.964 276.63-125.73 137.95-63.963 269.5-145.33 404.58-215.57 53.598-38.967 99.574-97.793 133.04-139.72 20.079-25.157 31.354-42.587 49.113-65.518 17.561-22.673 30.076-45.96 46.59-66.266 17.038-20.953 41.267-38.877 47.689-58.301 8.3829-25.359 5.449-44.68 0.4981-63.631-9.4537-36.178-35.159-67.462-65.92-111.91 7.8229-31.181 23.519-41.446 42.826-46.338 24.826-6.2914 55.631-1.9477 83.365-3.166 71.062-3.1211 140.02-8.6419 154.79-44.188 17.233-41.478 8.3002-108.14-41.607-177.11-17.293-23.896-46.014-38.005-71.371-65.201-67.93-47.782-118.65-50.202-166.11-78.578-95.626-57.173-167.12-118.62-262.62-156.62-4.3371-85.697-21.642-162.68-55.545-221.63-23.651-41.122-60.473-66.994-95.961-97.402-25.616-21.949-58.694-32.448-94.856-41.232-71.486-17.363-157-20.207-234.56-36.783-102.95-22.003-166.13-139.98-282.47-116.36-56.519-86.749-116.86-158.79-186.82-216.38-38.983-26.962-22.006-70.71-37.859-96.793-19.135-31.479-43.01-53.893-71.742-67.023-29.521-13.49-64.171-17.182-104.07-10.838-24.747 3.9349-47.363 30.361-80.334 23.447-33.598-7.0457-67.693-11.7-101.13-19.48-30.722-7.1495-57.82-10.751-81.566-10.936zm-6.5528 27.906c26.178-0.15393 57.678 4.3801 95.135 11.744 40.535 7.9691 92.815 19.96 140.57 45.297 2.2594-18.131 1.6458-32.662 9.7715-41.082 10.447-10.829 31.175-12.882 46.945-13.455 23.231-0.84343 49.471 5.1583 71.91 14.975 35.037 15.328 74.821 61.88 63.246 96.701-2.9497 8.8754-11.926 16.315-19.791 23.629 35.158 13.854 72.418 41.992 111.48 82.301 44.263 45.681 86.8 107.67 139.25 180.86 38.698-5.4949 71.973-6.4188 100.23 4.9356 40.307 16.195 68.601 46.987 102.6 71.047 20.402 14.435 45.445 26.018 69.141 31.777 137.22 33.354 283.01 19.022 365.83 95.359 32.689 30.131 59.5 70.087 73.938 115.94 33.568 106.61 26.918 242.16 62.642 339.18 9.6971 26.337 24.02 49.889 40.311 69.326-35.909-127.34-55.025-179.65-23.26-187.32 29.381-7.0891 111.82 30.631 194.82 97.857 48.162 39.009 83.146 73.153 143.69 144.65 1.344-21.986-42.346-62.818-60.496-94.227 47.33 10.168 83.285 29.21 112.16 48.328 25.174 16.669 48.491 31.568 63.395 49.611 30.518 36.949 38.646 76.346 45.424 95.887 9.2251 26.591 14.753 65.879-8.582 78.758-37.186 20.525-120.99 12.518-180.97 18.721-19.843 2.0526-36.01 0.5933-49.562 6.1407-22.584 9.2457-36.718 28.388-39.75 45.506-8.2526 46.589 27.337 70.448 47.717 108.76 12.227 22.989 16.992 48.496 17.217 67.639 0.3303 27.985-23.881 36.246-43.959 57.426-11.731 12.377-20.869 28.388-31.264 43.902-9.7634 14.574-20.859 28.672-29.715 40.104-35.979 46.439-77.425 117.62-141.08 168.03-78.413 62.096-184.63 103.84-284.4 163.78-36.723 22.063-75.83 35.717-112.89 53.613-32.702 15.79-63.224 36.23-97.6 49.574-51.824 20.117-110.35 35.865-156.01 59.449-21.253 10.976-38.593 23.052-56.723 34.736-54.389 35.049-99.785 71.976-150.42 108.34 18.373-66.182 102.62-166.02 153.93-249.03-31.421-21.821-85.201-7.0801-148.24 22.797-47.473 22.499-100.2 50.895-152.58 81.418-56.121 32.702-111.85 67.452-160.3 87.604v-0.025c5.8194-28.311 68.427-92.992 114.92-139.5 17.457-17.459 37.661-37.081 59.744-54.627 26.655-21.178 55.436-40.264 77.402-60.959l-219.13 38.365c25.295-24.799 99.771-76.974 163.33-86.557 53.245-8.0274 107.8-2.9099 167-2.8184 67.087 0.104 138.98-7.2162 200.7-17.197 51.103-8.264 102.86-24.48 153.93-39.121 73.033-20.938 144.67-43.586 211.02-77.078 98.649-49.797 188.97-113.16 248.08-189.13-78.561 43.704-152.09 110.04-232.53 154.69-58.702 32.581-122.87 53.179-179.31 70.471-210.89 64.603-396.34 59.688-476.83 56.67-38.677-1.4491-64.51 1.1852-77.363-17.918-16.011-23.794-9.7736-72.59 17.654-113.09 41.965-61.969 112.46-143.62 197.64-221.38 35.642-32.539 77.952-58.313 119.87-88.053 66.578-47.235 139.22-95.682 215.13-125.33 61.8-24.141 125.77-40.292 190.39-44.918 7.248-0.5188 45.51-2.4001 49.246-9.6699-142-16.13-296.72 33.499-400.22 110.9-71.419 53.405-155.18 82.752-244.41 58.035-17.645-6.6194-35.96-10.048-50.801-19.133-21.001-12.857-37.069-32.659-51.914-50.926-11.6-14.273-32.568-27.787-48.854-42.037-14.841-12.985-32.056-18.254-12.064-49.283 4.3829-6.8034 7.719-15.874 15.08-25.055 42.794-66.687 46.603-135 3.3613-205.28-2.8423 23.95 5.5951 49.221 8.8008 73.086 2.3394 17.415 0.01 34.715-2.209 47.092-12.448 69.501-57.953 90.654-74.221 146.99-7.1703 24.835-12.162 49.528-16.785 74.734-10.757 58.638-50.835 109.16-87.043 155.81-22.957 29.577-44.358 57.6-55.744 85.146 19.382-16.825 43.247-27.706 71.59-32.641 28.344-4.9349 83.015-5.9473 98.475 3.0253-52.626 40.727-108.9 57.959-170.66 82.664-17.354 6.9417-33.947 15.062-52.201 20.826-17.149 5.4149-35.926 8.4986-53.426 14.32-45.007 14.973-90.944 31.943-139.12 45.066 25.319-36.568 82.903-69.099 75.957-109.7-27.104-16.945-75.547-17.191-134.81-8.9707-49.107 6.8114-125.14 32.224-163.64 33.199 96.083-72.085 203.27-107.39 322.65-102.3-1.6834-26.559-10.812-48.723-25.74-67.023-9.5714-11.731-21.527-21.876-35.43-30.568-33.294-20.818-2.6418-20.373 33.104-11.65 24.456 5.968 51.3 14.917 61.676 27.129-2.2126 21.314-0.4741 42.628 2.6894 63.94 14.189-43.358 26.064-88.456 36.76-134.44 14.717-63.257 42.669-132.23 55.902-196.6 6.8148-32.595 0.867-61.582-4.6035-105.1-10.429-58.947-3.9996-121.39-18.014-161.84-15.883-45.843-42.392-67.647-67.406-101.03-42.87-57.206-91.235-104.93-117.94-173.37-15.051-38.582-34.856-80.27-45.316-121.74-9.8251-38.965-9.6346-77.995-21.938-113.59-36.543-105.74-73.367-111.78-101.78-307.03l33.609 74.709c7.2057-49.575-25.519-113.35-35.846-168.85-9.4023-50.529-4.4333-100.49 18.416-120.64 16.915-14.918 39.746-21.113 69.414-21.287z"/>
<path id="path4180" fill="#1f1a17" d="m4881.9 751.16c15.374 13.857 29.958 28.482 40.951 48.773 13.694 25.272 22.566 57.856 29.095 91.419 15.487 79.611 31.671 177.37 60.126 271.52 24.326 80.495 77.619 155.44 126.53 221.31-16.84 5.4571-43.28-27.4-64.015-48.645-20.098-20.591-38.944-45.134-54.536-71.371-25.434-42.8-45.024-87.945-53.595-138.15-2.296-13.454-7.8857-26.198-11.106-39.603-7.3497-30.6-13.69-61.84-21.064-92.757-11.648-48.843-20.154-98.166-34.269-140.1-10.963-32.579-15.545-67.731-36.936-84.249-8.4949-6.5589-21.437-16.115-28.165-20.23-20.505-12.538-24.209-16.149-21.184-21.131 3.5863-5.9051 22.426-5.0251 51.195 11.485 5.3269 3.056 10.995 7.6263 16.97 11.729z"/>
<path id="path4172" d="m3600.3 157.41c-29.668 0.17445-52.499 6.3691-69.414 21.287-22.849 20.15-27.818 70.112-18.416 120.64 10.327 55.5 43.051 119.27 35.846 168.85l-33.609-74.709c28.412 195.25 65.236 201.29 101.78 307.03 12.303 35.595 12.112 74.625 21.938 113.59 10.46 41.47 30.265 83.158 45.316 121.74 26.706 68.44 75.071 116.16 117.94 173.37 25.014 33.382 51.523 55.186 67.406 101.03 14.014 40.45 7.5846 102.89 18.014 161.84 0.4148-0.3006 0.8144-0.7028 1.1992-1.2012 11.93-15.449 9.5425-123.43-1.5449-170.26-9.426-39.81-30.158-66.272-52.297-93.803-12.421-15.444-23.213-32.843-37.748-49.195-46.163-51.93-79.958-108.48-104.44-172.16-15.694-40.817-38.317-90.622-36.402-131.91 65.33 121.22 120.74 196.16 166.77 242.92 37.003 37.584 64.338 55.511 86.377 66.658 34.38 17.389 54.435 15.392 67.113 23.549 9.095 5.853 27.92 18.195 24.598 50.309-3.826 36.998-58.243 49.158-63.887 117.98-7.346 214.71 50.555 159.72 34.139 246.52-8.598 45.47-36.663 93.949-83.209 145.87-1.1199 8.75 2.577 19.728-3.3613 26.248-3.994 4.3851-13.284 0.8325-17.476-3.3652-2.8926-2.8956 1.0632-8.1347 2.0175-12.115 1.7382-7.25 5.7792-14.086 6.0489-21.537 0.1955-5.389-3.136-10.32-4.7051-15.48 12.406-38.21 22.055-78.11 26.592-121.14 3.7029-35.129 4.0024-72.338-0.377-112.41-7.1623 30.912 1.657 58.179-4.8047 89.617-13.233 64.37-41.185 133.34-55.902 196.6-10.696 45.984-22.571 91.082-36.76 134.44-3.1635-21.312-4.902-42.626-2.6894-63.94-10.376-12.212-37.22-21.161-61.676-27.129-35.745-8.723-66.398-9.1676-33.104 11.65 13.903 8.692 25.858 18.837 35.43 30.568 14.928 18.3 24.057 40.464 25.74 67.023-119.38-5.09-226.57 30.214-322.65 102.3 38.5-0.975 114.53-26.388 163.64-33.199 59.264-8.2204 107.71-7.9743 134.81 8.9707 6.946 40.602-50.638 73.133-75.957 109.7 48.175-13.123 94.112-30.093 139.12-45.066 17.5-5.8217 36.277-8.9054 53.426-14.32 18.254-5.764 34.847-13.884 52.201-20.826 61.76-24.705 118.03-41.937 170.66-82.664-15.46-8.9726-70.131-7.9602-98.475-3.0253-28.343 4.935-52.208 15.816-71.59 32.641 11.386-27.546 32.787-55.57 55.744-85.146 36.208-46.65 76.286-97.171 87.043-155.81 4.623-25.206 9.6148-49.899 16.785-74.734 16.268-56.336 61.773-77.489 74.221-146.99 2.218-12.377 4.5484-29.677 2.209-47.092-3.2057-23.865-11.643-49.136-8.8008-73.086 43.242 70.28 39.433 138.59-3.3613 205.28-7.3611 9.181-10.697 18.251-15.08 25.055-19.991 31.029-2.7765 36.298 12.064 49.283 16.286 14.25 37.254 27.764 48.854 42.037 14.845 18.267 30.913 38.069 51.914 50.926 14.841 9.085 33.156 12.514 50.801 19.133 89.23 24.717 172.99-4.6302 244.41-58.035 103.5-77.399 258.22-127.03 400.22-110.9-3.736 7.2698-41.998 9.1511-49.246 9.6699-64.62 4.626-128.59 20.777-190.39 44.918-75.91 29.648-148.55 78.095-215.13 125.33-41.919 29.74-84.229 55.514-119.87 88.053-85.18 77.76-155.67 159.41-197.64 221.38-27.428 40.5-33.665 89.296-17.654 113.09 12.853 19.103 38.686 16.469 77.363 17.918 80.49 3.018 265.94 7.9331 476.83-56.67 56.44-17.292 120.61-37.89 179.31-70.471 80.44-44.65 153.97-110.99 232.53-154.69-59.11 75.97-149.43 139.33-248.08 189.13-66.35 33.492-137.99 56.14-211.02 77.078-51.07 14.641-102.83 30.857-153.93 39.121-61.72 9.981-133.61 17.301-200.7 17.197-59.2-0.091-113.76-5.209-167 2.8184-63.559 9.583-138.04 61.758-163.33 86.557l219.13-38.365c-21.966 20.695-50.747 39.781-77.402 60.959-22.083 17.546-42.287 37.168-59.744 54.627-46.493 46.508-109.1 111.19-114.92 139.5v0.025c48.45-20.152 104.18-54.902 160.3-87.604 52.38-30.523 105.11-58.919 152.58-81.418 63.037-29.877 116.82-44.618 148.24-22.797-51.31 83.01-135.56 182.85-153.93 249.03 50.635-36.364 96.031-73.291 150.42-108.34 18.13-11.684 35.47-23.76 56.723-34.736 45.66-23.584 104.19-39.332 156.01-59.449 34.376-13.344 64.898-33.784 97.6-49.574 37.061-17.896 76.168-31.55 112.89-53.613 99.77-59.94 205.99-101.68 284.4-163.78 63.655-50.41 105.1-121.59 141.08-168.03 8.856-11.431 19.951-25.53 29.715-40.104 10.395-15.514 19.533-31.525 31.264-43.902 20.078-21.18 44.289-29.441 43.959-57.426-0.225-19.143-4.9898-44.65-17.217-67.639-20.38-38.312-55.969-62.171-47.717-108.76 3.032-17.118 17.166-36.26 39.75-45.506 13.553-5.5474 29.72-4.0881 49.562-6.1407 59.98-6.203 143.78 1.8043 180.97-18.721 23.335-12.879 17.807-52.167 8.582-78.758-6.778-19.541-14.906-58.938-45.424-95.887-14.904-18.043-38.221-32.942-63.395-49.611-28.875-19.118-64.83-38.16-112.16-48.328 18.15 31.409 61.84 72.241 60.496 94.227-60.544-71.497-95.528-105.64-143.69-144.65-83-67.226-165.44-104.95-194.82-97.857-31.765 7.67-12.649 59.98 23.26 187.32-16.291-19.437-30.614-42.989-40.311-69.326-35.724-97.02-29.074-232.57-62.642-339.18-14.437-45.854-41.248-85.81-73.938-115.94-82.82-76.337-228.61-62.005-365.83-95.359-23.696-5.759-48.739-17.342-69.141-31.777-33.999-24.06-62.293-54.852-102.6-71.047-28.257-11.354-61.532-10.43-100.23-4.9356-52.45-73.19-94.987-135.18-139.25-180.86-39.061-40.309-76.32-68.447-111.48-82.301 7.865-7.314 16.841-14.754 19.791-23.629 11.575-34.821-28.209-81.373-63.246-96.701-22.439-9.8163-48.679-15.818-71.91-14.975-15.77 0.573-36.498 2.6261-46.945 13.455-8.1257 8.42-7.5121 22.951-9.7715 41.082-47.755-25.337-100.04-37.328-140.57-45.297-37.457-7.3641-68.957-11.898-95.135-11.744zm288 1213.5c-0.1383 0.1789-0.2745 0.3622-0.416 0.5157l-0.705 0.7636 0.2109 1.6602c0.1154 0.9134 1.0035 7.6538 1.9746 14.978 2.5382 19.144 3.8379 29.615 3.9551 31.857 0.017 0.3227 0.087-2.1881 0.1543-5.58 0.067-3.392 0.179-7.0106 0.248-8.043 0.3977-5.9157 1.1898-12.083 2.1348-16.625 0.5287-2.5422 0.5642-2.9289 0.4433-4.6895-0.2369-3.4482-0.4931-14.084-0.6875-28.56-0.105-7.8163-0.2416-15.137-0.3046-16.268l-0.1153-2.0547-0.3066 3.4844c-1.3065 14.841-3.5828 24.678-6.586 28.56z" transform="translate(0 -35.715)" fill="#82ff40"/>
<path id="path4168" fill="#ff0" d="m763.85 270.01c-6.606 0-22.641 10.476-22.641 19.4v3.2344c0 10.071 10.233 19.402 22.641 19.402h12.938c7.4526 0 9.7031-2.2498 9.7031-9.7012v-6.4668c0-15.855-8.9466-14.845-12.938-25.869h-9.7031zm74.656 87.287c-16.156-0.0306-42.311 0.61778-42.311 12.957v6.4668c0 74.218 67.926 56.386 67.926 45.271v-35.568-0.002c0-11.808-13.441-29.104-19.408-29.104-1.7944 0-3.8991-0.0171-6.207-0.0215zm77.367 87.334c-8.9464 0-2.422 8.0898-9.7031 9.7012l-29.117 6.4434c-22.81 5.049 15.648 68.374 35.586 67.932l48.518-1.0781c6.5276-0.144 6.8744-14.253 6.4688-18.324l-3.2344-32.338c-1.632-16.326-13.358-32.336-42.047-32.336h-6.4707zm161.73 74.377c-28.496 0-97.035 21.443-97.035 45.273 0 14.432 19.003 15.328 22.641 51.738 0.7679 7.684 6.6241 14.221 10.369 18.738 11.725 14.149-0.1692 13.6 15.506 13.6h38.816c25.814 0 87.33-27.987 87.33-48.506v-12.936c0-14.17-28.322-19.129-36.02-35.131-7-14.553-12.534-32.777-35.139-32.777h-6.4687zm187.6 64.674c-13.7 0-18.672 4.041-32.176 6.6387-24.04 4.624-20.584-2.405-26.047 15.998-12.254 41.279-26.357 55.313-25.877 64.676l0.461 8.9648 22.182 13.67c30.261 18.648 39.465 22.637 51.752 22.637h25.877c20.452 0 32.758-16.804 39.219-31.934 10.216-23.929 35.176-25.307 35.176-39.209v-12.934c0-15.649-65.996-48.508-80.863-48.508h-9.7032zm122.22 34.568c-2.6284-0.0647-4.4878 0.74513-5.7793 4.2383-6.219 16.818 6.0876 32.336 22.643 32.336 9.9304 0 19.406-2.9962 19.406-12.936v-3.2324c0-9.9266-2.9946-19.402-12.938-19.402h-12.938c-4.3677 0-7.7661-0.93919-10.395-1.0039zm58.91 43.045c-20.974 0-11.29 13.33-48.564 12.887-20.995-0.25-35.531 6.119-35.531 25.918v3.2344c0 6.809 11.867 17.11 12.986 35.523 1.2583 20.722-1.4186 28.482 8.1563 43.584 9.297 14.664 43.182 34.072 66.188 34.072h6.4687c35.052 0 34.426-14.548 77.629-22.637 9.4379-1.767 19.408-14.216 19.408-35.57v-3.2324c0-24.724-31.125-9.0282-38.814-67.908-1.323-10.141-25.084-25.871-35.58-25.871h-32.346zm-122.91 51.742c-10.455 0-16.174 11.738-16.174 22.635v3.2324c0 7.4514 2.2513 9.7031 9.705 9.7031h16.172c10.456 0 16.172-11.741 16.172-22.637 0-7.5693-5.3695-12.934-12.938-12.934h-12.938zm249.06 67.906c-10.079 0-16.174 15.998-16.174 25.871 0 9.9397 9.4748 12.934 19.406 12.934h6.4687c14.958 0 18.988-20.338 19.408-35.572-10.116-0.8411-11.492-3.2324-22.643-3.2324h-6.4668zm-104.63 54.891c-1.4443 0.0236-3.1617 0.084-5.3457 0.084h-3.2344c-10.899 0-22.643 5.714-22.643 16.168v0.002c0 5.389-4.5874 13.343 0 16.168 8.644 5.3234 11.492 3.2344 22.643 3.2344 4.3119 0 10.678 3.6731 12.938 0 6.0742-9.878 6.4687-10.892 6.4687-22.639 0-3.2331 2.6754-7.8863 0-9.7012-4.6215-3.1363-6.4932-3.3872-10.826-3.3164zm78.855 4.9199c-2.9038-0.10868-6.8441 1.6309-9.8086 1.6309-12.822 0-48.518 74.129-48.518 74.375v25.871c0 35.762 38.861 31.082 51.752 67.908 3.832 10.946 10.891 6.4668 22.641 6.4668h6.4688c9.906 0 54.986-64.224 54.986-77.609v-12.934c0-35.968-7.9907-49.563-32.344-58.209-17.923-6.364-35.28-14.78-42.051-25.869-0.7022-1.1496-1.8071-1.5815-3.127-1.6309zm41.941 211.82c-7.5715 0-4.9596 23.814-7.955 30.852-4.069 9.554-14.688 16.303-14.688 24.121 0 24.245 7.5686 38.166 24.723 46.426 6.066 2.921 53.998 18.248 56.141 18.248h6.4688c8.3913 0 13.781-10.731 14.156-16.305l3.2657-48.504 1.9843-3.0997c13.215-20.643-53.259-51.738-71.158-51.738h-12.938zm97.035 145.52c-17.903 0-9.7031 16.686-9.7031 32.336v3.2344c0 18.209 51.752 47.26 51.752 25.871v-25.871c0-21.036-8.1713-35.57-29.109-35.57h-12.94z" transform="translate(3291.9 95.991)"/>
<path id="path4184" d="m363.94 621.84c-1.9143 41.286 20.708 91.091 36.402 131.91 24.481 63.677 58.276 120.23 104.44 172.16 14.535 16.352 25.327 33.751 37.748 49.195 22.139 27.531 42.871 53.993 52.297 93.803 9.8155 34.099 8.0362 170.22 9.7539 186.94 4.3794 40.072 4.0799 77.281 0.37695 112.41-4.5371 43.029-14.186 82.931-26.592 121.14 1.5691 5.16 4.9006 10.09 4.7051 15.478-0.2697 7.4514-4.3106 14.287-6.0488 21.537-0.9543 3.9806-4.9102 9.2197-2.0176 12.115 4.192 4.1977 13.483 7.7504 17.477 3.3653 5.9383-6.52 2.2414-17.496 3.3613-26.246 46.546-51.922 74.611-100.4 83.209-145.87 16.416-86.8-41.485-31.814-34.139-246.52 5.6434-68.822 60.061-80.982 63.887-117.98 3.3223-32.114-15.503-44.456-24.598-50.309-12.678-8.1566-32.733-6.1579-67.113-23.547-22.039-11.147-49.374-29.074-86.377-66.658-46.035-46.757-101.44-121.7-166.77-242.92zm548.71 482.47v29.104c0 14.622 16.087 77.811 16.174 80.842h0.004c0.2491 8.65 0.4981 17.299 0.7461 25.949-1.3257 13.986-2.6536 27.973-3.9805 41.959-1.143 12.063-23.837 48.716-36.359 63.894-10.175 12.332-31.566 50.58-31.566 71.922 0 1.314 16.722 22.109 17.723 26.264 2.5725 10.682 2.1006 22.773 8.1543 31.943 2.376 3.5977 8.6278 0 12.938 0 7.4514 0 9.7031 2.2509 9.7031 9.7012 0 3.2331-0.5691 6.5182 0 9.7012 0.192 1.0719 1.2638 3.0419 2.1758 2.4453 6.585-4.313 9.9817-14.594 17.799-15.527 4.416-0.528 0.25087 9.3472 2.668 13.082 0.9771 1.5085 4.1553 0.6424 5.3496-0.6993 3.112-3.4996 5.157-7.9974 6.4004-12.512 3.4754-12.624 3.1512-26.235 7.6562-38.529 0.7417-2.0229 6.2456-2.1429 6.4707 0 2.1429 20.367-1.1097 40.991 0 61.441 0.0629 1.1692 2.9952 2.0424 3.3906 0.9395 8.537-23.776 1.7232-57.764 22.285-72.438 14.248-10.169 2.9735 34.94 6.1289 52.158 0.2137 1.1691 3.2512 1.6808 3.5312 0.5254 3.4-13.975 2.1772-28.979 6.7109-42.627 0.784-2.3637 6.9741-2.517 7.4747-0.078 3.9405 19.192 1.7826 39.209 4.5449 58.607 0.1771 1.2435 3.4437 0.8137 3.75-0.4023 4.7947-19.012 5.8445-38.863 10.934-57.797 2.479-9.22 8.7493-35.266 11.646-26.17 7.5291 23.641 0.3803 49.756 3.6992 74.346 0.2823 2.0926 5.8827 2.046 6.3398-0.016 4.2354-19.055 2.5402-39.098 6.5996-58.192 0.3989-1.8764 5.3838-1.7999 5.7598 0.08 4.2788 21.357 3.7668 43.446 7.2754 64.945 0.176 1.0811 3.0757 0.7457 3.2734-0.332 3.152-17.093 3.1743-34.669 6.332-51.76 0.1954-1.0594 3.0241-1.0537 3.2344 0 1.0537 5.285-1.367 7.9201 0.5039 12.973 0.6937 1.8766 4.9821 1.3225 5.5078 3.2539 3.1314 11.48 0.4203 24.071 3.6934 35.514 0.5932 2.072 6.1991 2.1383 6.4687 0 1.9006-15.007-1.8033-30.293-0.7187-45.381 0.7189-10.009 2.1869-38.718 6.1035-29.48 11.232 26.483 9.4856 56.864 17.256 84.562 0.5817 2.0743 5.2744 1.792 6.4687 0 1.792-2.6903 0-6.4702 0-9.7011 0-12.417 1.3385-18.107 12.94-16.17 3.1874 0.5327 0 6.4689 0 9.7032 0 10.671 4.3606 29.104 12.936 29.104 9.745 0 41.722-33.21 45.283-42.039 2.4879-6.171-4.8288-21.172 1.6992-19.891 7.4934 1.47-0.1549 20.714 7.42 21.68 7.9404 1.011 7.5066-15.776 14.904-18.83 3.6138-1.492 1.9713 8.2153 5.0879 10.574 2.1634 1.6366 6.3859 1.5034 8.123-0.58 4.368-5.241 1.6499-16.457 8.0488-18.822 8.3643-3.0915 6.0975 3.2324 12.938 3.2324 1.859 0 40.034-19.405 50.553-23.834 18.107-7.624 39.914-14.237 56.142-21.482 14.61-6.518 102.69-29.059 122.96-29.059-9.78-13.337-171.77-6.5795-203.78-6.4629-62.86 0.229-123.61-27.087-165.51-47.957-28.909-14.398-108.81-61.978-128.13-82.096-27.646-28.78-41.859-133.57-71.861-141.58zm698.82 645.54c18.765 31.185-20.614 7.1798-30.92 10.77-59.68 14.08-116.42 28.329-172.81 45.408-85.13 25.785-167 57.867-239.14 67.279-74.38 9.705-136.51 1.1301-192.34-9.7109-20.12-4.2926-33.695-4.8058-46.021-7.9864-9.658-2.4926-15.293-4.7267-21-2.7187-7.341 2.582-13.594 12.68-19.037 18.072-13.994 13.865-31.337 43.075-35.482 63.041-3.169 15.258-0.47865 35.233 7.6562 43.734 11.174 11.677 40.221 8.6584 72.873 9.0235h0.008c21.997 0.718 45.544-1.939 68.492-2.043 26.012-0.1178 51.447 2.1758 76.471 0.6387 19.15-1.176 35.15-4.2303 53.916-5.6543 30.281-2.2972 62.219 2.5179 92.293-1.8535 28.79-4.187 53.398-13.772 81.852-20.148 20.685-4.635 41.281-9.8921 61.768-15.814 27.988-8.091 56.292-11.89 83.873-22.631 16.172-6.297 31.509-16.123 47.426-24.578 21.125-11.223 42.765-21.576 63.744-33.104 26.636-11.16 3.685-21.064 15.293-27.09 6.6711-3.4618 8.8211 2.3616 13.91 3.3536 6.543 1.2754 16.141-1.2984 25.244-4.5293 18.79-6.669 17.991-22.815 4.7051-28.27-2.2868-0.9383-7.7209-6.5902-7.2969-9.0508 0.6194-3.5966 7.6654-5.9027 9.3145-9.121 3.0023-5.859-8.7873-14.216-5.377-16.826 6.336-4.8491 28.513 13.47 27.559 3.3652-0.554-5.8524-6.4454-9.3951-12.404-12.498-7.662-3.9893-16.429-7.0437-24.566-11.059zm280.2 57.143c-41.26 14.079-106.92 74.056-152.46 102.2-64.45 39.826-125.97 70.833-215.82 111.66-60.68 27.573-156.37 47.924-243.65 73.885-58.816 17.494-116.57 36.618-146.81 65.693-25.523 24.539-44.801 52.874-65.811 81.828-19.738 27.2-44.175 53.41-57.113 86.203 35.22-15.401 73.951-43.428 111.61-62.506 44.992-22.793 89.325-41.456 136.08-63.232 95.15-44.314 192.01-87.588 282.65-134.14 52.33-26.876 109.65-58.032 159.7-84.643 25.32-13.46 47.282-19.752 68.852-35.971 52.209-39.26 86.448-93.15 122.77-140.98z" transform="translate(3291.9 95.991)" fill="#3cad00"/>
<path id="path4178" d="m3856.2 533.39c-21.994 15.689-40.442 26.763-56.591 26.93-17.189 0.17714-31.391-9.3349-42.893-27.603 85.95 12.974 99.291-60.415 101.69-96.15 2.896-43.13-34.017-117.78-105.72-142.78-22.354-7.7943-18.679-15.355-15.814-17.13 2.1874-1.3543 8.6411-3.44 19.231-1.3451 7.2446 1.432 16.63 4.5131 27.503 11.745 11.026 7.3337 25.479 15.064 34.624 23.578 32.664 30.415 50.297 66.909 64.639 106.91 14.873 41.481-1.4046 77.285 0.2948 127.03 0.7715 22.615 16.688 46.09 18.077 78.33-20.536-9.52-28.851-22.133-32.965-35.809-5.2869-17.582-6.6537-35.912-12.073-53.705z"/>
<path id="path4174" d="m3705.1 324.75c37.579-2.0194 80.102 29.205 97.645 72.688s-1.2297 86.823-36.121 86.823c-25.077 0-59.474-16.872-80.328-43.264-8.1589-10.326-15.074-22.582-20.006-34.809-17.541-43.481 1.2309-79.418 38.81-81.438z"/>
<path id="path4176" fill="#fff" d="m3723.9 409.89c-1.0434-5.2617 6.5257-16.294 3.9234-25.663-2.3109-8.32-11.645-16.658-13.278-22.784-2.2709-8.512 4.8971-13.782 20.144-7.8503 3.0354 1.1806 5.3943 3.3691 9.04 5.8194 10.19 6.8503 15.339 15.256 17.216 24.634 1.7623 8.8114 0.7783 18.486-5.7886 28.536-8.3931 12.843-28.552 10.955-31.257-2.6926z"/>
</g>
</g>
</svg>
